<?xml version="1.0" encoding="UTF-8" standalone="no"?>
<svg
   xmlns:dc="http://purl.org/dc/elements/1.1/"
   xmlns:cc="http://creativecommons.org/ns#"
   xmlns:rdf="http://www.w3.org/1999/02/22-rdf-syntax-ns#"
   xmlns:svg="http://www.w3.org/2000/svg"
   xmlns="http://www.w3.org/2000/svg"
   id="map"
   width="100%"
   height="100%"
   preserveAspectRatio="xMidYMid"
   viewBox="0 0 1027 803"
   version="1.1">
  <metadata
     id="metadata199">
    <rdf:RDF>
      <cc:Work
         rdf:about="">
        <dc:format>image/svg+xml</dc:format>
        <dc:type
           rdf:resource="http://purl.org/dc/dcmitype/StillImage" />
        <dc:title></dc:title>
      </cc:Work>
    </rdf:RDF>
  </metadata>

  <defs
     id="defs6">
    <style
       type="text/css"
       id="style4">

  @import url('https://fonts.googleapis.com/css2?family=Oswald&display=swap');

  .state {fill:#D3D3D3;}
  #tooltip {
    font-family: Oswald;
  }
  #tooltip tspan {
      font-size: 1.3rem;
  }
  .tooltip-trigger:hover {
    opacity: 0.8;
  }


  /*
  The .state class sets the default fill color for all states.

  Individual states (such as Kansas, Montana, Pennsylvania) can be colored as follows:

  #KS, #MT, #PA {fill:#0000FF;}

  Place this code in the empty space below.
  */

  </style>
  </defs>
  <g
     class="state"
     id="g165"
     transform="translate(50,159.53772)">
    <path
       class="tooltip-trigger"
       data-tooltip-text="{{result.AK.state_name}}: {{result.AK.total_ecv}}"
       data-tooltip-red="Trump: {{ result.AK.red_votes }}%"
       data-tooltip-blue="Biden: {{ result.AK.blue_votes }}%"
       {% if result.AK.red_votes > result.AK.blue_votes %}
       fill="#de0100"
       {% elif result.AK.red_votes < result.AK.blue_votes %}
       fill="#1405bd"
       {% endif %}
       d="m 161.1,453.7 -0.3,85.4 1.6,1 3.1,0.2 1.5,-1.1 h 2.6 l 0.2,2.9 7,6.8 0.5,2.6 3.4,-1.9 0.6,-0.2 0.3,-3.1 1.5,-1.6 1.1,-0.2 1.9,-1.5 3.1,2.1 0.6,2.9 1.9,1.1 1.1,2.4 3.9,1.8 3.4,6 2.7,3.9 2.3,2.7 1.5,3.7 5,1.8 5.2,2.1 1,4.4 0.5,3.1 -1,3.4 -1.8,2.3 -1.6,-0.8 -1.5,-3.1 -2.7,-1.5 -1.8,-1.1 -0.8,0.8 1.5,2.7 0.2,3.7 -1.1,0.5 -1.9,-1.9 -2.1,-1.3 0.5,1.6 1.3,1.8 -0.8,0.8 c 0,0 -0.8,-0.3 -1.3,-1 -0.5,-0.6 -2.1,-3.4 -2.1,-3.4 l -1,-2.3 c 0,0 -0.3,1.3 -1,1 -0.6,-0.3 -1.3,-1.5 -1.3,-1.5 l 1.8,-1.9 -1.5,-1.5 v -5 h -0.8 l -0.8,3.4 -1.1,0.5 -1,-3.7 -0.6,-3.7 -0.8,-0.5 0.3,5.7 v 1.1 l -1.5,-1.3 -3.6,-6 -2.1,-0.5 -0.6,-3.7 -1.6,-2.9 -1.6,-1.1 v -2.3 l 2.1,-1.3 -0.5,-0.3 -2.6,0.6 -3.4,-2.4 -2.6,-2.9 -4.8,-2.6 -4,-2.6 1.3,-3.2 V 542 l -1.8,1.6 -2.9,1.1 -3.7,-1.1 -5.7,-2.4 h -5.5 l -0.6,0.5 -6.5,-3.9 -2.1,-0.3 -2.7,-5.8 -3.6,0.3 -3.6,1.5 0.5,4.5 1.1,-2.9 1,0.3 -1.5,4.4 3.2,-2.7 0.6,1.6 -3.9,4.4 -1.3,-0.3 -0.5,-1.9 -1.3,-0.8 -1.3,1.1 -2.7,-1.8 -3.1,2.1 -1.8,2.1 -3.4,2.1 -4.7,-0.2 -0.5,-2.1 3.7,-0.6 v -1.3 l -2.3,-0.6 1,-2.4 2.3,-3.9 v -1.8 l 0.2,-0.8 4.4,-2.3 1,1.3 h 2.7 l -1.3,-2.6 -3.7,-0.3 -5,2.7 -2.4,3.4 -1.8,2.6 -1.1,2.3 -4.2,1.5 -3.1,2.6 -0.3,1.6 2.3,1 0.8,2.1 -2.7,3.2 -6.5,4.2 -7.8,4.2 -2.1,1.1 -5.3,1.1 -5.3,2.3 1.8,1.3 -1.5,1.5 -0.5,1.1 -2.7,-1 -3.2,0.2 -0.8,2.3 h -1 l 0.3,-2.4 -3.6,1.3 -2.9,1 -3.4,-1.3 -2.9,1.9 h -3.2 l -2.1,1.3 -1.6,0.8 -2.1,-0.3 -2.6,-1.1 -2.3,0.6 -1,1 -1.6,-1.1 v -1.9 l 3.1,-1.3 6.3,0.6 4.4,-1.6 2.1,-2.1 2.9,-0.6 1.8,-0.8 2.7,0.2 1.6,1.3 1,-0.3 2.3,-2.7 3.1,-1 3.4,-0.6 1.3,-0.3 0.6,0.5 h 0.8 l 1.3,-3.7 4,-1.5 1.9,-3.7 2.3,-4.5 1.6,-1.5 0.3,-2.6 -1.6,1.3 -3.4,0.6 -0.6,-2.4 -1.3,-0.3 -1,1 -0.2,2.9 -1.5,-0.2 -1.5,-5.8 -1.3,1.3 -1.1,-0.5 -0.3,-1.9 -4,0.2 -2.1,1.1 -2.6,-0.3 1.5,-1.5 0.5,-2.6 -0.6,-1.9 1.5,-1 1.3,-0.2 -0.6,-1.8 v -4.4 l -1,-1 -0.8,1.5 h -6.1 l -1.5,-1.3 -0.6,-3.9 -2.1,-3.6 v -1 l 2.1,-0.8 0.2,-2.1 1.1,-1.1 -0.8,-0.5 -1.3,0.5 -1.1,-2.7 1,-5 4.5,-3.2 2.6,-1.6 1.9,-3.7 2.7,-1.3 2.6,1.1 0.3,2.4 2.4,-0.3 3.2,-2.4 1.6,0.6 1,0.6 h 1.6 l 2.3,-1.3 0.8,-4.4 c 0,0 0.3,-2.9 1,-3.4 0.6,-0.5 1,-1 1,-1 l -1.1,-1.9 -2.6,0.8 -3.2,0.8 -1.9,-0.5 -3.6,-1.8 -5,-0.2 -3.6,-3.7 0.5,-3.9 0.6,-2.4 -2.1,-1.8 -1.9,-3.7 0.5,-0.8 6.8,-0.5 h 2.1 l 1,1 h 0.6 l -0.2,-1.6 3.9,-0.6 2.6,0.3 1.5,1.1 -1.5,2.1 -0.5,1.5 2.7,1.6 5,1.8 1.8,-1 -2.3,-4.4 -1,-3.2 1,-0.8 -3.4,-1.9 -0.5,-1.1 0.5,-1.6 -0.8,-3.9 -2.9,-4.7 -2.4,-4.2 2.9,-1.9 h 3.2 l 1.8,0.6 4.2,-0.2 3.7,-3.6 1.1,-3.1 3.7,-2.4 1.6,1 2.7,-0.6 3.7,-2.1 1.1,-0.2 1,0.8 4.5,-0.2 2.7,-3.1 h 1.1 l 3.6,2.4 1.9,2.1 -0.5,1.1 0.6,1.1 1.6,-1.6 3.9,0.3 0.3,3.7 1.9,1.5 7.1,0.6 6.3,4.2 1.5,-1 5.2,2.6 2.1,-0.6 1.9,-0.8 4.8,1.9 z M 46,482.6 l 2.1,5.3 -0.2,1 -2.9,-0.3 -1.8,-4 -1.8,-1.5 H 39 l -0.2,-2.6 1.8,-2.4 1.1,2.4 1.5,1.5 z m -2.6,33.5 3.7,0.8 3.7,1 0.8,1 -1.6,3.7 -3.1,-0.2 -3.4,-3.6 z M 22.7,502 l 1.1,2.6 1.1,1.6 -1.1,0.8 -2.1,-3.1 V 502 Z M 9,575.1 l 3.4,-2.3 3.4,-1 2.6,0.3 0.5,1.6 1.9,0.5 1.9,-1.9 -0.3,-1.6 2.7,-0.6 2.9,2.6 -1.1,1.8 -4.4,1.1 -2.7,-0.5 -3.7,-1.1 -4.4,1.5 -1.6,0.3 z m 48.9,-4.5 1.6,1.9 2.1,-1.6 -1.5,-1.3 z m 2.9,3 1.1,-2.3 2.1,0.3 -0.8,1.9 h -2.4 z m 23.6,-1.9 1.5,1.8 1,-1.1 -0.8,-1.9 z m 8.8,-12.5 1.1,5.8 2.9,0.8 5,-2.9 4.4,-2.6 -1.6,-2.4 0.5,-2.4 -2.1,1.3 -2.9,-0.8 1.6,-1.1 1.9,0.8 3.9,-1.8 0.5,-1.5 -2.4,-0.8 0.8,-1.9 -2.7,1.9 -4.7,3.6 -4.8,2.9 z m 42.3,-19.8 2.4,-1.5 -1,-1.8 -1.8,1 z">
      <title
         id="title8" />
      <title
         id="title10">Alaska</title>
    </path>
    <path
       class="tooltip-trigger"
       data-tooltip-text="{{result.HI.state_name}}: {{result.HI.total_ecv}}"
       data-tooltip-red="Trump: {{ result.HI.red_votes }}%"
       data-tooltip-blue="Biden: {{ result.HI.blue_votes }}%"
       {% if result.HI.red_votes > result.HI.blue_votes %}
       fill="#de0100"
       {% elif result.HI.red_votes < result.HI.blue_votes %}
       fill="#1405bd"
       {% endif %}
       d="m 233.1,519.3 1.9,-3.6 2.3,-0.3 0.3,0.8 -2.1,3.1 z m 10.2,-3.7 6.1,2.6 2.1,-0.3 1.6,-3.9 -0.6,-3.4 -4.2,-0.5 -4,1.8 z m 30.7,10 3.7,5.5 2.4,-0.3 1.1,-0.5 1.5,1.3 3.7,-0.2 1,-1.5 -2.9,-1.8 -1.9,-3.7 -2.1,-3.6 -5.8,2.9 z m 20.2,8.9 1.3,-1.9 4.7,1 0.6,-0.5 6.1,0.6 -0.3,1.3 -2.6,1.5 -4.4,-0.3 z m 5.3,5.2 1.9,3.9 3.1,-1.1 0.3,-1.6 -1.6,-2.1 -3.7,-0.3 z m 7,-1.2 2.3,-2.9 4.7,2.4 4.4,1.1 4.4,2.7 v 1.9 l -3.6,1.8 -4.8,1 -2.4,-1.5 z m 16.6,15.6 1.6,-1.3 3.4,1.6 7.6,3.6 3.4,2.1 1.6,2.4 1.9,4.4 4,2.6 -0.3,1.3 -3.9,3.2 -4.2,1.5 -1.5,-0.6 -3.1,1.8 -2.4,3.2 -2.3,2.9 -1.8,-0.2 -3.6,-2.6 -0.3,-4.5 0.6,-2.4 -1.6,-5.7 -2.1,-1.8 -0.2,-2.6 2.3,-1 2.1,-3.1 0.5,-1 -1.6,-1.8 z">
      <title
         id="title13" />
      <title
         id="title11">Hawaii</title>
    </path>
    <path
       class="tooltip-trigger"
       data-tooltip-text="{{result.AL.state_name}}: {{result.AL.total_ecv}}"
       data-tooltip-red="Trump: {{ result.AL.red_votes }}%"
       data-tooltip-blue="Biden: {{ result.AL.blue_votes }}%"
       {% if result.AL.red_votes > result.AL.blue_votes %}
       fill="#de0100"
       {% elif result.AL.red_votes < result.AL.blue_votes %}
       fill="#1405bd"
       {% endif %}
       d="m 628.5,466.4 0.6,0.2 1.3,-2.7 1.5,-4.4 2.3,0.6 3.1,6 v 1 l -2.7,1.9 2.7,0.3 5.2,-2.5 -0.3,-7.6 -2.5,-1.8 -2,-2 0.4,-4 10.5,-1.5 25.7,-2.9 6.7,-0.6 5.6,0.1 -0.5,-2.2 -1.5,-0.8 -0.9,-1.1 1,-2.6 -0.4,-5.2 -1.6,-4.5 0.8,-5.1 1.7,-4.8 -0.2,-1.7 -1.8,-0.7 -0.5,-3.6 -2.7,-3.4 -2,-6.5 -1.4,-6.7 -1.8,-5 -3.8,-16 -3.5,-7.9 -0.8,-5.6 0.1,-2.2 -9,0.8 -23.4,2.2 -12.2,0.8 -0.2,6.4 0.2,16.7 -0.7,31 -0.3,14.1 2.8,18.8 1.6,14.7 z">
      <title
         id="title17" />
      <title
         id="title14">Alabama</title>
    </path>
    <path
       class="tooltip-trigger"
       data-tooltip-text="{{result.AR.state_name}}: {{result.AR.total_ecv}}"
       data-tooltip-red="Trump: {{ result.AR.red_votes }}%"
       data-tooltip-blue="Biden: {{ result.AR.blue_votes }}%"
       {% if result.AR.red_votes > result.AR.blue_votes %}
       fill="#de0100"
       {% elif result.AR.red_votes < result.AR.blue_votes %}
       fill="#1405bd"
       {% endif %}
       d="m 587.3,346.1 -6.4,-0.7 0.9,-3.1 3.1,-2.6 0.6,-2.3 -1.8,-2.9 -31.9,1.2 -23.3,0.7 -23.6,0.3 1.5,6.9 0.1,8.5 1.4,10.9 0.3,38.2 2.1,1.6 3,-1.2 2.9,1.2 0.4,10.1 25.2,-0.2 26.8,-0.8 0.9,-1.9 -0.3,-3.8 -1.7,-3.1 1.5,-1.4 -1.4,-2.2 0.7,-2.4 1.1,-5.9 2.7,-2.3 -0.8,-2.2 4,-5.6 2.5,-1.1 -0.1,-1.7 -0.5,-1.7 2.9,-5.8 2.5,-1.1 0.2,-3.3 2.1,-1.4 0.9,-4.1 -1.4,-4 4.2,-2.4 0.3,-2.1 1.2,-4.2 0.9,-3.1 z">
      <title
         id="title21" />
      <title
         id="title23">Arkansas</title>
    </path>
    <path
       class="tooltip-trigger"
       data-tooltip-text="{{result.AZ.state_name}}: {{result.AZ.total_ecv}}"
       data-tooltip-red="Trump: {{ result.AZ.red_votes }}%"
       data-tooltip-blue="Biden: {{ result.AZ.blue_votes }}%"
       {% if result.AZ.red_votes > result.AZ.blue_votes %}
       fill="#de0100"
       {% elif result.AZ.red_votes < result.AZ.blue_votes %}
       fill="#1405bd"
       {% endif %}
       d="m 135.1,389.7 -0.3,1.5 0.5,1 18.9,10.7 12.1,7.6 14.7,8.6 16.8,10 12.3,2.4 25.4,2.7 6,-39.6 7,-53.1 4.4,-31 -24.6,-3.6 -60.7,-11 -0.2,1.1 -2.6,16.5 -2.1,3.8 -2.8,-0.2 -1.2,-2.6 -2.6,-0.4 -1.2,-1.1 -1.1,0.1 -2.1,1.7 -0.3,6.8 -0.3,1.5 -0.5,12.5 -1.5,2.4 -0.4,3.3 2.8,5 1.1,5.5 0.7,1.1 1.1,0.9 -0.4,2.4 -1.7,1.2 -3.4,1.6 -1.6,1.8 -1.6,3.6 -0.5,4.9 -3,2.9 -1.9,0.9 -0.1,5.8 -0.6,1.6 0.5,0.8 3.9,0.4 -0.9,3 -1.7,2.4 -3.7,0.4 z">
      <title
         id="title26" />
      <title
         id="title20">Arizona</title>
    </path>
    <path
       class="tooltip-trigger"
       data-tooltip-text="{{result.CA.state_name}}: {{result.CA.total_ecv}}"
       data-tooltip-red="Trump: {{ result.CA.red_votes }}%"
       data-tooltip-blue="Biden: {{ result.CA.blue_votes }}%"
       {% if result.CA.red_votes > result.CA.blue_votes %}
       fill="#de0100"
       {% elif result.CA.red_votes < result.CA.blue_votes %}
       fill="#1405bd"
       {% endif %}
       d="m 122.7,385.9 -19.7,-2.7 -10,-1.5 -0.5,-1.8 v -9.4 l -0.3,-3.2 -2.6,-4.2 -0.8,-2.3 -3.9,-4.2 -2.9,-4.7 -2.7,-0.2 -3.2,-0.8 -0.3,-1 1.5,-0.6 -0.6,-3.2 -1.5,-2.1 -4.8,-0.8 -3.9,-2.1 -1.1,-2.3 -2.6,-4.8 -2.9,-3.1 H 57 l -3.9,-2.1 -4.5,-1.8 -4.2,-0.5 -2.4,-2.7 0.5,-1.9 1.8,-7.1 0.8,-1.9 v -2.4 l -1.6,-1 -0.5,-2.9 -1.5,-2.6 -3.4,-5.8 -1.3,-3.1 -1.5,-4.7 -1.6,-5.3 -3.2,-4.4 -0.5,-2.9 0.8,-3.9 h 1.1 l 2.1,-1.6 1.1,-3.6 -1,-2.7 -2.7,-0.5 -1.9,-2.6 -2.1,-3.7 -0.2,-8.2 0.6,-1.9 0.6,-2.3 0.5,-2.4 -5.7,-6.3 V 236 l 0.3,-0.5 0.3,-3.2 -1.3,-4 -2.3,-4.8 -2.7,-4.5 -1.8,-3.9 1,-3.7 0.6,-5.8 1.8,-3.1 0.3,-6.5 -1.1,-3.6 -1.6,-4.2 -2.7,-4.2 0.8,-3.2 1.5,-4.2 1.8,-0.8 0.3,-1.1 3.1,-2.6 5.2,-11.8 0.2,-7.4 1.69,-4.9 38.69,11.8 25.6,6.6 -8,31.3 -8.67,33.1 12.63,19.2 42.16,62.3 17.1,26.1 -0.4,3.1 2.8,5.2 1.1,5.4 1,1.5 0.7,0.6 -0.2,1.4 -1.4,1 -3.4,1.6 -1.9,2.1 -1.7,3.9 -0.5,4.7 -2.6,2.5 -2.3,1.1 -0.1,6.2 -0.6,1.9 1,1.7 3,0.3 -0.4,1.6 -1.4,2 -3.9,0.6 z M 48.8,337 l 1.3,1.5 -0.2,1.3 -3.2,-0.1 -0.6,-1.2 -0.6,-1.5 z m 1.9,0 1.2,-0.6 3.6,2.1 3.1,1.2 -0.9,0.6 -4.5,-0.2 -1.6,-1.6 z m 20.7,19.8 1.8,2.3 0.8,1 1.5,0.6 0.6,-1.5 -1,-1.8 -2.7,-2 -1.1,0.2 v 1.2 z m -1.4,8.7 1.8,3.2 1.2,1.9 -1.5,0.2 -1.3,-1.2 c 0,0 -0.7,-1.5 -0.7,-1.9 v -2.2 z">
      <title
         id="title30" />
      <title
         id="title32">California</title>
    </path>
    <path
       class="tooltip-trigger"
       data-tooltip-text="{{result.CO.state_name}}: {{result.CO.total_ecv}}"
       data-tooltip-red="Trump: {{ result.CO.red_votes }}%"
       data-tooltip-blue="Biden: {{ result.CO.blue_votes }}%"
       {% if result.CO.red_votes > result.CO.blue_votes %}
       fill="#de0100"
       {% elif result.CO.red_votes < result.CO.blue_votes %}
       fill="#1405bd"
       {% endif %}
       d="m 380.2,235.5 -36,-3.5 -79.1,-8.6 -2.2,22.1 -7,50.4 -1.9,13.7 34,3.9 37.5,4.4 34.7,3 14.3,0.6 z">
      <title
         id="title35" />
      <title
         id="title37">Colorado</title>
    </path>
    <path
       class="tooltip-trigger"
       data-tooltip-text="{{result.CT.state_name}}: {{result.CT.total_ecv}}"
       data-tooltip-red="Trump: {{ result.CT.red_votes }}%"
       data-tooltip-blue="Biden: {{ result.CT.blue_votes }}%"
       {% if result.CT.red_votes > result.CT.blue_votes %}
       fill="#de0100"
       {% elif result.CT.red_votes < result.CT.blue_votes %}
       fill="#1405bd"
       {% endif %}
       d="m 852,190.9 3.6,-3.2 1.9,-2.1 0.8,0.6 2.7,-1.5 5.2,-1.1 7,-3.5 -0.6,-4.2 -0.8,-4.4 -1.6,-6 -4.3,1.1 -21.8,4.7 0.6,3.1 1.5,7.3 v 8.3 l -0.9,2.1 1.7,2.2 z">
      <title
         id="title40" />
      <title
         id="title29">Connecticut</title>
    </path>
    <path
       class="tooltip-trigger"
       data-tooltip-text="{{result.DE.state_name}}: {{result.DE.total_ecv}}"
       data-tooltip-red="Trump: {{ result.DE.red_votes }}%"
       data-tooltip-blue="Biden: {{ result.DE.blue_votes }}%"
       {% if result.DE.red_votes > result.DE.blue_votes %}
       fill="#de0100"
       {% elif result.DE.red_votes < result.DE.blue_votes %}
       fill="#1405bd"
       {% endif %}
       d="m 834.4,247.2 -1,0.5 -3.6,-2.4 -1.8,-4.7 -1.9,-3.6 -2.3,-1 -2.1,-3.6 0.5,-2 0.5,-2.3 0.1,-1.1 -0.6,0.1 -1.7,1 -2,1.7 -0.2,0.3 1.4,4.1 2.3,5.6 3.7,16.1 5,-0.3 6,-1.1 z">
      <title
         id="title44" />
      <title
         id="title46">Delaware</title>
    </path>
    <path
       class="tooltip-trigger"
       data-tooltip-text="{{result.FL.state_name}}: {{result.FL.total_ecv}}"
       data-tooltip-red="Trump: {{ result.FL.red_votes }}%"
       data-tooltip-blue="Biden: {{ result.FL.blue_votes }}%"
       {% if result.FL.red_votes > result.FL.blue_votes %}
       fill="#de0100"
       {% elif result.FL.red_votes < result.FL.blue_votes %}
       fill="#1405bd"
       {% endif %}
       d="m 750.2,445.2 -5.2,-0.7 -0.7,0.8 1.5,4.4 -0.4,5.2 -4.1,-1 -0.2,-2.8 H 737 l -5.3,0.7 -32.4,1.9 -8.2,-0.3 -1.7,-1.7 -2.5,-4.2 H 681 l -6.6,0.5 -35.4,4.2 -0.3,2.8 1.6,1.6 2.9,2 0.3,8.4 3.3,-0.6 6,-2.1 6,-0.5 4.4,-0.6 7.6,1.8 8.1,3.9 1.6,1.5 2.9,1.1 1.6,1.9 0.3,2.7 3.2,-1.3 h 3.9 l 3.6,-1.9 3.7,-3.6 3.1,0.2 0.5,-1.1 -0.8,-1 0.2,-1.9 4,-0.8 h 2.6 l 2.9,1.5 4.2,1.5 2.4,3.7 2.7,1 1.1,3.4 3.4,1.6 1.6,2.6 1.9,0.6 5.2,1.3 1.3,3.1 3,3.7 v 9.5 l -1.5,4.7 0.3,2.7 1.3,4.8 1.8,4 0.8,-0.5 1.5,-4.5 -2.6,-1 -0.3,-0.6 1.6,-0.6 4.5,1 0.2,1.6 -3.2,5.5 -2.1,2.4 3.6,3.7 2.6,3.1 2.9,5.3 2.9,3.9 2.1,5 1.8,0.3 1.6,-2.1 1.8,1.1 2.6,4 0.6,3.6 3.1,4.4 0.8,-1.3 3.9,0.3 3.6,2.3 3.4,5.2 0.8,3.4 0.3,2.9 1.1,1 1.3,0.5 2.4,-1 1.5,-1.6 3.9,-0.2 3.1,-1.5 2.7,-3.2 -0.5,-1.9 -0.3,-2.4 0.6,-1.9 -0.3,-1.9 2.4,-1.3 0.3,-3.4 -0.6,-1.8 -0.5,-12 -1.3,-7.6 -4.5,-8.2 -3.6,-5.8 -2.6,-5.3 -2.9,-2.9 -2.9,-7.4 0.7,-1.4 1.1,-1.3 -1.6,-2.9 -4,-3.7 -4.8,-5.5 -3.7,-6.3 -5.3,-9.4 -3.7,-9.7 -2.3,-7.3 z m 17.7,132.7 2.4,-0.6 1.3,-0.2 1.5,-2.3 2.3,-1.6 1.3,0.5 1.7,0.3 0.4,1.1 -3.5,1.2 -4.2,1.5 -2.3,1.2 z m 13.5,-5 1.2,1.1 2.7,-2.1 5.3,-4.2 3.7,-3.9 2.5,-6.6 1,-1.7 0.2,-3.4 -0.7,0.5 -1,2.8 -1.5,4.6 -3.2,5.3 -4.4,4.2 -3.4,1.9 z">
      <title
         id="title49" />
      <title
         id="title51" />
      <title
         id="title53" />
      <title
         id="title55">Florida</title>
    </path>
    <path
       class="tooltip-trigger"
       data-tooltip-text="{{result.GA.state_name}}: {{result.GA.total_ecv}}"
       data-tooltip-red="Trump: {{ result.GA.red_votes }}%"
       data-tooltip-blue="Biden: {{ result.GA.blue_votes }}%"
       {% if result.GA.red_votes > result.GA.blue_votes %}
       fill="#de0100"
       {% elif result.GA.red_votes < result.GA.blue_votes %}
       fill="#1405bd"
       {% endif %}
       d="m 750.2,444.2 -5.6,-0.7 -1.4,1.6 1.6,4.7 -0.3,3.9 -2.2,-0.6 -0.2,-3 h -5.2 l -5.3,0.7 -32.3,1.9 -7.7,-0.3 -1.4,-1.2 -2.5,-4.3 -0.8,-3.3 -1.6,-0.9 -0.5,-0.5 0.9,-2.2 -0.4,-5.5 -1.6,-4.5 0.8,-4.9 1.7,-4.8 -0.2,-2.5 -1.9,-0.7 -0.4,-3.2 -2.8,-3.5 -1.9,-6.2 -1.5,-7 -1.7,-4.8 -3.8,-16 -3.5,-8 -0.8,-5.3 0.1,-2.3 3.3,-0.3 13.6,-1.6 18.6,-2 6.3,-1.1 0.5,1.4 -2.2,0.9 -0.9,2.2 0.4,2 1.4,1.6 4.3,2.7 3.2,-0.1 3.2,4.7 0.6,1.6 2.3,2.8 0.5,1.7 4.7,1.8 3,2.2 2.3,3 2.3,1.3 2,1.8 1.4,2.7 2.1,1.9 4.1,1.8 2.7,6 1.7,5.1 2.8,0.7 2.1,1.9 2,5.7 2.9,1.6 1.7,-0.8 0.4,1.2 -3.3,6.2 0.5,2.6 -1.5,4.2 -2.3,10 0.8,6.3 z">
      <title
         id="title58" />
      <title
         id="title60">Georgia</title>
    </path>
    <path
       class="tooltip-trigger"
       data-tooltip-text="{{result.IA.state_name}}: {{result.IA.total_ecv}}"
       data-tooltip-red="Trump: {{ result.IA.red_votes }}%"
       data-tooltip-blue="Biden: {{ result.IA.blue_votes }}%"
       {% if result.IA.red_votes > result.IA.blue_votes %}
       fill="#de0100"
       {% elif result.IA.red_votes < result.IA.blue_votes %}
       fill="#1405bd"
       {% endif %}
       d="m 556.8,183.6 2.1,2.1 0.3,0.7 -2,3 0.3,4 2.6,4.1 3.1,1.6 2.4,0.3 0.9,1.8 0.2,2.4 2.5,1 0.9,1.1 0.5,1.6 3.8,3.3 0.6,1.9 -0.7,3 -1.7,3.7 -0.6,2.4 -2.1,1.6 -1.6,0.5 -5.7,1.5 -1.6,4.8 0.8,1.8 1.7,1.5 -0.2,3.5 -1.9,1.4 -0.7,1.8 v 2.4 l -1.4,0.4 -1.7,1.4 -0.5,1.7 0.4,1.7 -1.3,1 -2.3,-2.7 -1.4,-2.8 -8.3,0.8 -10,0.6 -49.2,1.2 -1.6,-4.3 -0.4,-6.7 -1.4,-4.2 -0.7,-5.2 -2.2,-3.7 -1,-4.6 -2.7,-7.8 -1.1,-5.6 -1.4,-1.9 -1.3,-2.9 1.7,-3.8 1.2,-6.1 -2.7,-2.2 -0.3,-2.4 0.7,-2.4 1.8,-0.3 61.1,-0.6 21.2,-0.7 z">
      <title
         id="title63" />
      <title
         id="title43">Iowa</title>
    </path>
    <path
       class="tooltip-trigger"
       data-tooltip-text="{{result.ID.state_name}}: {{result.ID.total_ecv}}"
       data-tooltip-red="Trump: {{ result.ID.red_votes }}%"
       data-tooltip-blue="Biden: {{ result.ID.blue_votes }}%"
       {% if result.ID.red_votes > result.ID.blue_votes %}
       fill="#de0100"
       {% elif result.ID.red_votes < result.ID.blue_votes %}
       fill="#1405bd"
       {% endif %}
       d="m 175.3,27.63 -4.8,17.41 -4.5,20.86 -3.4,16.22 -0.4,9.67 1.2,4.44 3.5,2.66 -0.2,3.91 -3.9,4.4 -4.5,6.6 -0.9,2.9 -1.2,1.1 -1.8,0.8 -4.3,5.3 -0.4,3.1 -0.4,1.1 0.6,1 2.6,-0.1 1.1,2.3 -2.4,5.8 -1.2,4.2 -8.8,35.3 20.7,4.5 39.5,7.9 34.8,6.1 4.9,-29.2 3.8,-24.1 -2.7,-2.4 -0.4,-2.6 -0.8,-1.1 -2.1,1 -0.7,2.6 -3.2,0.5 -3.9,-1.6 -3.8,0.1 -2.5,0.7 -3.4,-1.5 -2.4,0.2 -2.4,2 -2,-1.1 -0.7,-4 0.7,-2.9 -2.5,-2.9 -3.3,-2.6 -2.7,-13.1 -0.1,-4.7 -0.3,-0.1 -0.2,0.4 -5.1,3.5 -1.7,-0.2 -2.9,-3.4 -0.2,-3.1 7,-17.13 -0.4,-1.94 -3.4,-1.15 -0.6,-1.18 -2.6,-3.46 -4.6,-10.23 -3.2,-1.53 -2,-4.95 1.3,-4.63 -3.2,-7.58 4.4,-21.52 z">
      <title
         id="title67" />
      <title
         id="title69">Idaho</title>
    </path>
    <path
       class="tooltip-trigger"
       data-tooltip-text="{{result.IL.state_name}}: {{result.IL.total_ecv}}"
       data-tooltip-red="Trump: {{ result.IL.red_votes }}%"
       data-tooltip-blue="Biden: {{ result.IL.blue_votes }}%"
       {% if result.IL.red_votes > result.IL.blue_votes %}
       fill="#de0100"
       {% elif result.IL.red_votes < result.IL.blue_votes %}
       fill="#1405bd"
       {% endif %}
       d="m 618.7,214.3 -0.8,-2.6 -1.3,-3.7 -1.6,-1.8 -1.5,-2.6 -0.4,-5.5 -15.9,1.8 -17.4,1 h -12.3 l 0.2,2.1 2.2,0.9 1.1,1.4 0.4,1.4 3.9,3.4 0.7,2.4 -0.7,3.3 -1.7,3.7 -0.8,2.7 -2.4,1.9 -1.9,0.6 -5.2,1.3 -1.3,4.1 0.6,1.1 1.9,1.8 -0.2,4.3 -2.1,1.6 -0.5,1.3 v 2.8 l -1.8,0.6 -1.4,1.2 -0.4,1.2 0.4,2 -1.6,1.3 -0.9,2.8 0.3,3.9 2.3,7 7,7.6 5.7,3.7 v 4.4 l 0.7,1.2 6.6,0.6 2.7,1.4 -0.7,3.5 -2.2,6.2 -0.8,3 2,3.7 6.4,5.3 4.8,0.8 2.2,5.1 2,3.4 -0.9,2.8 1.5,3.8 1.7,2.1 1.6,-0.3 1,-2.2 2.4,-1.7 2.8,-1 6.1,2.5 0.5,-0.2 v -1.1 l -1.2,-2.7 0.4,-2.8 2.4,-1.6 3.4,-1.2 -0.5,-1.3 -0.8,-2 1.2,-1.3 1,-2.7 v -4 l 0.4,-4.9 2.5,-3 1.8,-3.8 2.5,-4 -0.5,-5.3 -1.8,-3.2 -0.3,-3.3 0.8,-5.3 -0.7,-7.2 -1.1,-15.8 -1.4,-15.3 -0.9,-11.7 z">
      <title
         id="title72" />
      <title
         id="title74">Illinois</title>
    </path>
    <path
       class="tooltip-trigger"
       data-tooltip-text="{{result.IN.state_name}}: {{result.IN.total_ecv}}"
       data-tooltip-red="Trump: {{ result.IN.red_votes }}%"
       data-tooltip-blue="Biden: {{ result.IN.blue_votes }}%"
       {% if result.IN.red_votes > result.IN.blue_votes %}
       fill="#de0100"
       {% elif result.IN.red_votes < result.IN.blue_votes %}
       fill="#1405bd"
       {% endif %}
       d="m 622.9,216.1 1.5,1 1.1,-0.3 2.1,-1.9 2.5,-1.8 14.3,-1.1 18.4,-1.8 1.6,15.5 4.9,42.6 -0.6,2.9 1.3,1.6 0.2,1.3 -2.3,1.6 -3.6,1.7 -3.2,0.4 -0.5,4.8 -4.7,3.6 -2.9,4 0.2,2.4 -0.5,1.4 h -3.5 l -1.4,-1.7 -5.2,3 0.2,3.1 -0.9,0.2 -0.5,-0.9 -2.4,-1.7 -3.6,1.5 -1.4,2.9 -1.2,-0.6 -1.6,-1.8 -4.4,0.5 -5.7,1 -2.5,1.3 v -2.6 l 0.4,-4.7 2.3,-2.9 1.8,-3.9 2.7,-4.2 -0.5,-5.8 -1.8,-3.1 -0.3,-3.2 0.8,-5.3 -0.7,-7.1 -0.9,-12.6 -2.5,-30.1 z">
      <title
         id="title77" />
      <title
         id="title52">Indiana</title>
    </path>
    <path
       class="tooltip-trigger"
       data-tooltip-text="{{result.KS.state_name}}: {{result.KS.total_ecv}}"
       data-tooltip-red="Trump: {{ result.KS.red_votes }}%"
       data-tooltip-blue="Biden: {{ result.KS.blue_votes }}%"
       {% if result.KS.red_votes > result.KS.blue_votes %}
       fill="#de0100"
       {% elif result.KS.red_votes < result.KS.blue_votes %}
       fill="#1405bd"
       {% endif %}
       d="m 485.9,259.5 -43.8,-0.6 -40.6,-1.2 -21.7,-0.9 -4.3,64.8 24.3,1 44.7,2.1 46.3,0.6 12.6,-0.3 0.7,-35 -1.2,-11.1 -2.5,-2 -2.4,-3 -2.3,-3.6 0.6,-3 1.7,-1.4 v -2.1 l -0.8,-0.7 -2.6,-0.2 -3.5,-3.4 z">
      <title
         id="title81" />
      <title
         id="title83">Kansas</title>
    </path>
    <path
       class="tooltip-trigger"
       data-tooltip-text="{{result.KY.state_name}}: {{result.KY.total_ecv}}"
       data-tooltip-red="Trump: {{ result.KY.red_votes }}%"
       data-tooltip-blue="Biden: {{ result.KY.blue_votes }}%"
       {% if result.KY.red_votes > result.KY.blue_votes %}
       fill="#de0100"
       {% elif result.KY.red_votes < result.KY.blue_votes %}
       fill="#1405bd"
       {% endif %}
       d="m 607.2,331.8 12.6,-0.7 0.1,-4.1 h 4.3 l 30.4,-3.2 45.1,-4.3 5.6,-3.6 3.9,-2.1 0.1,-1.9 6,-7.8 4.1,-3.6 2.1,-2.4 -3.3,-2 -2.5,-2.7 -3,-3.8 -0.5,-2.2 -2.6,-1.4 -0.9,-1.9 -0.2,-6.1 -2.6,-2 -1.9,-1.1 -0.5,-2.3 -1.3,0.2 -2,1.2 -2.5,2.7 -1.9,-1.7 -2.5,-0.5 -2.4,1.4 h -2.3 l -1.8,-2 -5.6,-0.1 -1.8,-4.5 -2.9,-1.5 -2.1,0.8 -4.2,0.2 -0.5,2.1 1.2,1.5 0.3,2.1 -2.8,2 -3.8,1.8 -2.6,0.4 -0.5,4.5 -4.9,3.6 -2.6,3.7 0.2,2.2 -0.9,2.3 -4.5,-0.1 -1.3,-1.3 -3.9,2.2 0.2,3.3 -2.4,0.6 -0.8,-1.4 -1.7,-1.2 -2.7,1.1 -1.8,3.5 -2.2,-1 -1.4,-1.6 -3.7,0.4 -5.6,1 -2.8,1.3 -1.2,3.4 -1,1 1.5,3.7 -4.2,1.4 -1.9,1.4 -0.4,2.2 1.2,2.4 v 2.2 l -1.6,0.4 -6.1,-2.5 -2.3,0.9 -2,1.4 -0.8,1.8 1.7,2.4 -0.9,1.8 -0.1,3.3 -2.4,1.3 -2.1,1.7 z">
      <title
         id="title86" />
      <title
         id="title88">Kentucky</title>
    </path>
    <path
       class="tooltip-trigger"
       data-tooltip-text="{{result.LA.state_name}}: {{result.LA.total_ecv}}"
       data-tooltip-red="Trump: {{ result.LA.red_votes }}%"
       data-tooltip-blue="Biden: {{ result.LA.blue_votes }}%"
       {% if result.LA.red_votes > result.LA.blue_votes %}
       fill="#de0100"
       {% elif result.LA.red_votes < result.LA.blue_votes %}
       fill="#1405bd"
       {% endif %}
       d="m 526.9,485.9 8.1,-0.3 10.3,3.6 6.5,1.1 3.7,-1.5 3.2,1.1 3.2,1 0.8,-2.1 -3.2,-1.1 -2.6,0.5 -2.7,-1.6 0.8,-1.5 3.1,-1 1.8,1.5 1.8,-1 3.2,0.6 1.5,2.4 0.3,2.3 4.5,0.3 1.8,1.8 -0.8,1.6 -1.3,0.8 1.6,1.6 8.4,3.6 3.6,-1.3 1,-2.4 2.6,-0.6 1.8,-1.5 1.3,1 0.8,2.9 -2.3,0.8 0.6,0.6 3.4,-1.3 2.3,-3.4 0.8,-0.5 -2.1,-0.3 0.8,-1.6 -0.2,-1.5 2.1,-0.5 1.1,-1.3 0.6,0.8 0.6,3.1 4.2,0.6 4,1.9 1,1.5 h 2.9 l 1.1,1 2.3,-3.1 V 493 h -1.3 l -3.4,-2.7 -5.8,-0.8 -3.2,-2.3 1.1,-2.7 2.3,0.3 0.2,-0.6 -1.8,-1 v -0.5 h 3.2 l 1.8,-3.1 -1.3,-1.9 -0.3,-2.7 -1.5,0.2 -1.9,2.1 -0.6,2.6 -3.1,-0.6 -1,-1.8 1.8,-1.9 1.9,-1.7 -2.2,-6.5 -3.4,-3.4 1,-7.3 -0.2,-0.5 -1.3,0.2 -33.1,1.4 -0.8,-2.4 0.8,-8.5 8.6,-14.8 -0.9,-2.6 1.4,-0.4 0.4,-2 -2.2,-2 0.1,-1.9 -2,-4.5 -0.4,-5.1 0.1,-0.7 -26.4,0.8 -25.2,0.1 0.4,9.7 0.7,9.5 0.5,3.7 2.6,4.5 0.9,4.4 4.3,6 0.3,3.1 0.6,0.8 -0.7,8.3 -2.8,4.6 1.2,2.4 -0.5,2.6 -0.8,7.3 -1.3,3 0.2,3.7 z">
      <title
         id="title91" />
      <title
         id="title61">Louisiana</title>
    </path>
    <path
       class="tooltip-trigger"
       data-tooltip-text="{{result.MA.state_name}}: {{result.MA.total_ecv}}"
       data-tooltip-red="Trump: {{ result.MA.red_votes }}%"
       data-tooltip-blue="Biden: {{ result.MA.blue_votes }}%"
       {% if result.MA.red_votes > result.MA.blue_votes %}
       fill="#de0100"
       {% elif result.MA.red_votes < result.MA.blue_votes %}
       fill="#1405bd"
       {% endif %}
       d="m 887.5,172.5 -0.5,-2.3 0.8,-1.5 2.9,-1.5 0.8,3.1 -0.5,1.8 -2.4,1.5 v 1 l 1.9,-1.5 3.9,-4.5 3.9,-1.9 4.2,-1.5 -0.3,-2.4 -1,-2.9 -1.9,-2.4 -1.8,-0.8 -2.1,0.2 -0.5,0.5 1,1.3 1.5,-0.8 2.1,1.6 0.8,2.7 -1.8,1.8 -2.3,1 -3.6,-0.5 -3.9,-6 -2.3,-2.6 h -1.8 l -1.1,0.8 -1.9,-2.6 0.3,-1.5 2.4,-5.2 -2.9,-4.4 -3.7,1.8 -1.8,2.9 -18.3,4.7 -13.8,2.5 -0.6,10.6 0.7,4.9 22,-4.8 11.2,-2.8 2,1.6 3.4,4.3 2.9,4.7 z m 12.5,1.4 2.2,-0.7 0.5,-1.7 1,0.1 1,2.3 -1.3,0.5 -3.9,0.1 z m -9.4,0.8 2.3,-2.6 h 1.6 l 1.8,1.5 -2.4,1 -2.2,1 z">
      <title
         id="title95" />
      <title
         id="title64">Massachusetts</title>
    </path>
    <path
       class="tooltip-trigger"
       data-tooltip-text="{{result.MD.state_name}}: {{result.MD.total_ecv}}"
       data-tooltip-red="Trump: {{ result.MD.red_votes }}%"
       data-tooltip-blue="Biden: {{ result.MD.blue_votes }}%"
       {% if result.MD.red_votes > result.MD.blue_votes %}
       fill="#de0100"
       {% elif result.MD.red_votes < result.MD.blue_votes %}
       fill="#1405bd"
       {% endif %}
       d="m 834.8,264.1 1.7,-3.8 0.5,-4.8 -6.3,1.1 -5.8,0.3 -3.8,-16.8 -2.3,-5.5 -1.5,-4.6 -22.2,4.3 -37.6,7.6 2,10.4 4.8,-4.9 2.5,-0.7 1.4,-1.5 1.8,-2.7 1.6,0.7 2.6,-0.2 2.6,-2.1 2,-1.5 2.1,-0.6 1.5,1.1 2.7,1.4 1.9,1.8 1.3,1.4 4.8,1.6 -0.6,2.9 5.8,2.1 2.1,-2.6 3.7,2.5 -2.1,3.3 -0.7,3.3 -1.8,2.6 v 2.1 l 0.3,0.8 2,1.3 3.4,1.1 4.3,-0.1 3.1,1 2.1,0.3 1,-2.1 -1.5,-2.1 v -1.8 l -2.4,-2.1 -2.1,-5.5 1.3,-5.3 -0.2,-2.1 -1.3,-1.3 c 0,0 1.5,-1.6 1.5,-2.3 0,-0.6 0.5,-2.1 0.5,-2.1 l 1.9,-1.3 1.9,-1.6 0.5,1 -1.5,1.6 -1.3,3.7 0.3,1.1 1.8,0.3 0.5,5.5 -2.1,1 0.3,3.6 0.5,-0.2 1.1,-1.9 1.6,1.8 -1.6,1.3 -0.3,3.4 2.6,3.4 3.9,0.5 1.6,-0.8 3.2,4.2 1,0.4 z m -14.5,0.2 1.1,2.5 0.2,1.8 1.1,1.9 c 0,0 0.9,-0.9 0.9,-1.2 0,-0.3 -0.7,-3.1 -0.7,-3.1 l -0.7,-2.3 z">
      <title
         id="title99" />
      <title
         id="title101">Maryland</title>
    </path>
    <path
       class="tooltip-trigger"
       data-tooltip-text="{{result.ME.state_name}}: {{result.ME.total_ecv}}"
       data-tooltip-red="Trump: {{ result.ME.red_votes }}%"
       data-tooltip-blue="Biden: {{ result.ME.blue_votes }}%"
       {% if result.ME.red_votes > result.ME.blue_votes %}
       fill="#de0100"
       {% elif result.ME.red_votes < result.ME.blue_votes %}
       fill="#1405bd"
       {% endif %}
       d="m 865.8,91.9 1.5,0.4 v -2.6 l 0.8,-5.5 2.6,-4.7 1.5,-4 -1.9,-2.4 v -6 l 0.8,-1 0.8,-2.7 -0.2,-1.5 -0.2,-4.8 1.8,-4.8 2.9,-8.9 2.1,-4.2 h 1.3 l 1.3,0.2 v 1.1 l 1.3,2.3 2.7,0.6 0.8,-0.8 v -1 l 4,-2.9 1.8,-1.8 1.5,0.2 6,2.4 1.9,1 9.1,29.9 h 6 l 0.8,1.9 0.2,4.8 2.9,2.3 h 0.8 l 0.2,-0.5 -0.5,-1.1 2.8,-0.5 1.9,2.1 2.3,3.7 V 85 l -2.1,4.7 -1.9,0.6 -3.4,3.1 -4.8,5.5 h -1.3 c -0.6,0 -1,-2.1 -1,-2.1 l -1.8,0.2 -1,1.5 -2.4,1.5 -1,1.5 1.6,1.5 -0.5,0.6 -0.5,2.7 -1.9,-0.2 v -1.6 l -0.3,-1.3 -1.5,0.3 -1.8,-3.2 -2.1,1.3 1.3,1.5 0.3,1.1 -0.8,1.3 0.3,3.1 0.2,1.6 -1.6,2.6 -2.9,0.5 -0.3,2.9 -5.3,3.1 -1.3,0.5 -1.6,-1.5 -3.1,3.6 1,3.2 -1.5,1.3 -0.2,4.4 -1.1,6.3 -2.2,-0.9 -0.5,-3.1 -4,-1.1 -0.2,-2.5 -11.7,-37.43 z m 36.5,15.6 1.5,-1.5 1.4,1.1 0.6,2.4 -1.7,0.9 z m 6.7,-5.9 1.8,1.9 c 0,0 1.3,0.1 1.3,-0.2 0,-0.3 0.2,-2 0.2,-2 l 0.9,-0.8 -0.8,-1.8 -2,0.7 z">
      <title
         id="title104" />
      <title
         id="title70">Maine</title>
    </path>
    <path
       class="tooltip-trigger"
       data-tooltip-text="{{result.MI.state_name}}: {{result.MI.total_ecv}}"
       data-tooltip-red="Trump: {{ result.MI.red_votes }}%"
       data-tooltip-blue="Biden: {{ result.MI.blue_votes }}%"
       {% if result.MI.red_votes > result.MI.blue_votes %}
       fill="#de0100"
       {% elif result.MI.red_votes < result.MI.blue_votes %}
       fill="#1405bd"
       {% endif %}
       d="m 644.5,211 19.1,-1.9 0.2,1.1 9.9,-1.5 12,-1.7 0.1,-0.6 0.2,-1.5 2.1,-3.7 2,-1.7 -0.2,-5.1 1.6,-1.6 1.1,-0.3 0.2,-3.6 1.5,-3 1.1,0.6 0.2,0.6 0.8,0.2 1.9,-1 -0.4,-9.1 -3.2,-8.2 -2.3,-9.1 -2.4,-3.2 -2.6,-1.8 -1.6,1.1 -3.9,1.8 -1.9,5 -2.7,3.7 -1.1,0.6 -1.5,-0.6 c 0,0 -2.6,-1.5 -2.4,-2.1 0.2,-0.6 0.5,-5 0.5,-5 l 3.4,-1.3 0.8,-3.4 0.6,-2.6 2.4,-1.6 -0.3,-10 -1.6,-2.3 -1.3,-0.8 -0.8,-2.1 0.8,-0.8 1.6,0.3 0.2,-1.6 -2.6,-2.2 -1.3,-2.6 h -2.6 l -4.5,-1.5 -5.5,-3.4 h -2.7 l -0.6,0.6 -1,-0.5 -3.1,-2.3 -2.9,1.8 -2.9,2.3 0.3,3.6 1,0.3 2.1,0.5 0.5,0.8 -2.6,0.8 -2.6,0.3 -1.5,1.8 -0.3,2.1 0.3,1.6 0.3,5.5 -3.6,2.1 -0.6,-0.2 v -4.2 l 1.3,-2.4 0.6,-2.4 -0.8,-0.8 -1.9,0.8 -1,4.2 -2.7,1.1 -1.8,1.9 -0.2,1 0.6,0.8 -0.6,2.6 -2.3,0.5 v 1.1 l 0.8,2.4 -1.1,6.1 -1.6,4 0.6,4.7 0.5,1.1 -0.8,2.4 -0.3,0.8 -0.3,2.7 3.6,6 2.9,6.5 1.5,4.8 -0.8,4.7 -1,6 -2.4,5.2 -0.3,2.7 -3.2,3.1 z m -33.3,-72.4 -1.3,-1.1 -1.8,-10.4 -3.7,-1.3 -1.7,-2.3 -12.6,-2.8 -2.8,-1.1 -8.1,-2.2 -7.8,-1 -3.9,-5.3 0.7,-0.5 2.7,-0.8 3.6,-2.3 v -1 l 0.6,-0.6 6,-1 2.4,-1.9 4.4,-2.1 0.2,-1.3 1.9,-2.9 1.8,-0.8 1.3,-1.8 2.3,-2.3 4.4,-2.4 4.7,-0.5 1.1,1.1 -0.3,1 -3.7,1 -1.5,3.1 -2.3,0.8 -0.5,2.4 -2.4,3.2 -0.3,2.6 0.8,0.5 1,-1.1 3.6,-2.9 1.3,1.3 h 2.3 l 3.2,1 1.5,1.1 1.5,3.1 2.7,2.7 3.9,-0.2 1.5,-1 1.6,1.3 1.6,0.5 1.3,-0.8 h 1.1 l 1.6,-1 4,-3.6 3.4,-1.1 6.6,-0.3 4.5,-1.9 2.6,-1.3 1.5,0.2 v 5.7 l 0.5,0.3 2.9,0.8 1.9,-0.5 6.1,-1.6 1.1,-1.1 1.5,0.5 v 7 l 3.2,3.1 1.3,0.6 1.3,1 -1.3,0.3 -0.8,-0.3 -3.7,-0.5 -2.1,0.6 -2.3,-0.2 -3.2,1.5 h -1.8 l -5.8,-1.3 -5.2,0.2 -1.9,2.6 -7,0.6 -2.4,0.8 -1.1,3.1 -1.3,1.1 -0.5,-0.2 -1.5,-1.6 -4.5,2.4 h -0.6 l -1.1,-1.6 -0.8,0.2 -1.9,4.4 -1,4 -3.2,6.9 z m -29.6,-56.5 1.8,-2.1 2.2,-0.8 5.4,-3.9 2.3,-0.6 0.5,0.5 -5.1,5.1 -3.3,1.9 -2.1,0.9 z m 86.2,32.1 0.6,2.5 3.2,0.2 1.3,-1.2 c 0,0 -0.1,-1.5 -0.4,-1.6 -0.3,-0.2 -1.6,-1.9 -1.6,-1.9 l -2.2,0.2 -1.6,0.2 -0.3,1.1 z">
      <title
         id="title108" />
      <title
         id="title73">Michigan</title>
    </path>
    <path
       class="tooltip-trigger"
       data-tooltip-text="{{result.MN.state_name}}: {{result.MN.total_ecv}}"
       data-tooltip-red="Trump: {{ result.MN.red_votes }}%"
       data-tooltip-blue="Biden: {{ result.MN.blue_votes }}%"
       {% if result.MN.red_votes > result.MN.blue_votes %}
       fill="#de0100"
       {% elif result.MN.red_votes < result.MN.blue_votes %}
       fill="#1405bd"
       {% endif %}
       d="M 464.6,66.79 464,70.7 v 10.27 l 1.6,5.03 1.9,3.32 0.5,9.93 1.8,13.45 1.8,7.3 0.4,6.4 v 5.3 l -1.6,1.8 -1.8,1.3 v 1.5 l 0.9,1.7 4.1,3.5 0.7,3.2 v 35.9 l 60.3,-0.6 21.2,-0.7 -0.5,-6 -1.8,-2.1 -7.2,-4.6 -3.6,-5.3 -3.4,-0.9 -2,-2.8 h -3.2 l -3.5,-3.8 -0.5,-7 0.1,-3.9 1.5,-3 -0.7,-2.7 -2.8,-3.1 2.2,-6.1 5.4,-4 1.2,-1.4 -0.2,-8 0.2,-3 2.6,-3 3.8,-2.9 1.3,-0.2 4.5,-5 1.8,-0.8 2.3,-3.9 2.4,-3.6 3.1,-2.6 4.8,-2 9.2,-4.1 3.9,-1.8 0.6,-2.3 -4.4,0.4 -0.7,1.1 h -0.6 l -1.8,-3.1 -8.9,0.3 -1,0.8 h -1 l -0.5,-1.3 -0.8,-1.8 -2.6,0.5 -3.2,3.2 -1.6,0.8 h -3.1 l -2.6,-1 v -2.1 l -1.3,-0.2 -0.5,0.5 -2.6,-1.3 -0.5,-2.9 -1.5,0.5 -0.5,1 -2.4,-0.5 -5.3,-2.4 -3.9,-2.6 h -2.9 l -1.3,-1 -2.3,0.6 -1.1,1.1 -0.3,1.3 h -4.8 v -2.1 l -6.3,-0.3 -0.3,-1.5 h -4.8 l -1.6,-1.6 -1.5,-6.1 -0.8,-5.5 -1.9,-0.8 -2.3,-0.5 -0.6,0.2 -0.3,8.2 -30.1,-0.03 z">
      <title
         id="title112" />
      <title
         id="title76">Minnesota</title>
    </path>
    <path
       class="tooltip-trigger"
       data-tooltip-text="{{result.MO.state_name}}: {{result.MO.total_ecv}}"
       data-tooltip-red="Trump: {{ result.MO.red_votes }}%"
       data-tooltip-blue="Biden: {{ result.MO.blue_votes }}%"
       {% if result.MO.red_votes > result.MO.blue_votes %}
       fill="#de0100"
       {% elif result.MO.red_votes < result.MO.blue_votes %}
       fill="#1405bd"
       {% endif %}
       d="m 593.1,338.7 0.5,-5.9 4.2,-3.4 1.9,-1 v -2.9 l 0.7,-1.6 -1.1,-1.6 -2.4,0.3 -2.1,-2.5 -1.7,-4.5 0.9,-2.6 -2,-3.2 -1.8,-4.6 -4.6,-0.7 -6.8,-5.6 -2.2,-4.2 0.8,-3.3 2.2,-6 0.6,-3 -1.9,-1 -6.9,-0.6 -1.1,-1.9 v -4.1 l -5.3,-3.5 -7.2,-7.8 -2.3,-7.3 -0.5,-4.2 0.7,-2.4 -2.6,-3.1 -1.2,-2.4 -7.7,0.8 -10,0.6 -48.8,1.2 1.3,2.6 -0.1,2.2 2.3,3.6 3,3.9 3.1,3 2.6,0.2 1.4,1.1 v 2.9 l -1.8,1.6 -0.5,2.3 2.1,3.2 2.4,3 2.6,2.1 1.3,11.6 -0.8,40 0.5,5.7 23.7,-0.2 23.3,-0.7 32.5,-1.3 2.2,3.7 -0.8,3.1 -3.1,2.5 -0.5,1.8 5.2,0.5 4.1,-1.1 z">
      <title
         id="title116" />
      <title
         id="title79">Missouri</title>
    </path>
    <path
       class="tooltip-trigger"
       data-tooltip-text="{{result.MS.state_name}}: {{result.MS.total_ecv}}"
       data-tooltip-red="Trump: {{ result.MS.red_votes }}%"
       data-tooltip-blue="Biden: {{ result.MS.blue_votes }}%"
       {% if result.MS.red_votes > result.MS.blue_votes %}
       fill="#de0100"
       {% elif result.MS.red_votes < result.MS.blue_votes %}
       fill="#1405bd"
       {% endif %}
       d="m 604.3,472.5 2.6,-4.2 1.8,0.8 6.8,-1.9 2.1,0.3 1.5,0.8 h 5.2 l 0.4,-1.6 -1.7,-14.8 -2.8,-19 1,-45.1 -0.2,-16.7 0.2,-6.3 -4.8,0.3 -19.6,1.6 -13,0.4 -0.2,3.2 -2.8,1.3 -2.6,5.1 0.5,1.6 0.1,2.4 -2.9,1.1 -3.5,5.1 0.8,2.3 -3,2.5 -1,5.7 -0.6,1.9 1.6,2.5 -1.5,1.4 1.5,2.8 0.3,4.2 -1.2,2.5 -0.2,0.9 0.4,5 2,4.5 -0.1,1.7 2.3,2 -0.7,3.1 -0.9,0.3 0.6,1.9 -8.6,15 -0.8,8.2 0.5,1.5 24.2,-0.7 8.2,-0.7 1.9,-0.3 0.6,1.4 -1,7.1 3.3,3.3 2.2,6.4 z">
      <title
         id="title120" />
      <title
         id="title82">Mississippi</title>
    </path>
    <path
       class="tooltip-trigger"
       data-tooltip-text="{{result.MT.state_name}}: {{result.MT.total_ecv}}"
       data-tooltip-red="Trump: {{ result.MT.red_votes }}%"
       data-tooltip-blue="Biden: {{ result.MT.blue_votes }}%"
       {% if result.MT.red_votes > result.MT.blue_votes %}
       fill="#de0100"
       {% elif result.MT.red_votes < result.MT.blue_votes %}
       fill="#1405bd"
       {% endif %}
       d="m 361.1,70.77 -5.3,57.13 -1.3,15.2 -59.1,-6.6 -49,-7.1 -1.4,11.2 -1.9,-1.7 -0.4,-2.5 -1.3,-1.9 -3.3,1.5 -0.7,2.5 -2.3,0.3 -3.8,-1.6 -4.1,0.1 -2.4,0.7 -3.2,-1.5 -3,0.2 -2.1,1.9 -0.9,-0.6 -0.7,-3.4 0.7,-3.2 -2.7,-3.2 -3.3,-2.5 -2.5,-12.6 -0.1,-5.3 -1.6,-0.8 -0.6,1 -4.5,3.2 -1.2,-0.1 -2.3,-2.8 -0.2,-2.8 7,-17.15 -0.6,-2.67 -3.5,-1.12 -0.4,-0.91 -2.7,-3.5 -4.6,-10.41 -3.2,-1.58 -1.8,-4.26 1.3,-4.63 -3.2,-7.57 4.4,-21.29 32.7,6.89 18.4,3.4 32.3,5.3 29.3,4 29.2,3.5 30.8,3.07 z">
      <title
         id="title124" />
      <title
         id="title85">Montana</title>
    </path>
    <path
       class="tooltip-trigger"
       data-tooltip-text="{{result.NC.state_name}}: {{result.NC.total_ecv}}"
       data-tooltip-red="Trump: {{ result.NC.red_votes }}%"
       data-tooltip-blue="Biden: {{ result.NC.blue_votes }}%"
       {% if result.NC.red_votes > result.NC.blue_votes %}
       fill="#de0100"
       {% elif result.NC.red_votes < result.NC.blue_votes %}
       fill="#1405bd"
       {% endif %}
       d="M 786.7,357.7 774,350 l -3.1,-0.8 -16.6,2.1 -1.6,-3 -2.8,-2.2 -16.7,0.5 -7.4,0.9 -9.2,4.5 -6.8,2.7 -6.5,1.2 -13.4,1.4 0.1,-4.1 1.7,-1.3 2.7,-0.7 0.7,-3.8 3.9,-2.5 3.9,-1.5 4.5,-3.7 4.4,-2.3 0.7,-3.2 4.1,-3.8 0.7,1 2.5,0.2 2.4,-3.6 1.7,-0.4 2.6,0.3 1.8,-4 2.5,-2.4 0.5,-1.8 0.1,-3.5 4.4,0.1 38.5,-5.6 57.5,-12.3 2,4.8 3.6,6.5 2.4,2.4 0.6,2.3 -2.4,0.2 0.8,0.6 -0.3,4.2 -2.6,1.3 -0.6,2.1 -1.3,2.9 -3.7,1.6 -2.4,-0.3 -1.5,-0.2 -1.6,-1.3 0.3,1.3 v 1 h 1.9 l 0.8,1.3 -1.9,6.3 h 4.2 l 0.6,1.6 2.3,-2.3 1.3,-0.5 -1.9,3.6 -3.1,4.8 H 828 l -1.1,-0.5 -2.7,0.6 -5.2,2.4 -6.5,5.3 -3.4,4.7 -1.9,6.5 -0.5,2.4 -4.7,0.5 -5.1,1.5 z m 49.3,-26.2 2.6,-2.5 3.2,-2.6 1.5,-0.6 0.2,-2 -0.6,-6.1 -1.5,-2.3 -0.6,-1.9 0.7,-0.2 2.7,5.5 0.4,4.4 -0.2,3.4 -3.4,1.5 -2.8,2.4 -1.1,1.2 z">
      <title
         id="title128" />
      <title
         id="title130">North Carolina</title>
    </path>
    <path
       class="tooltip-trigger"
       data-tooltip-text="{{result.ND.state_name}}: {{result.ND.total_ecv}}"
       data-tooltip-red="Trump: {{ result.ND.red_votes }}%"
       data-tooltip-blue="Biden: {{ result.ND.blue_votes }}%"
       {% if result.ND.red_votes > result.ND.blue_votes %}
       fill="#de0100"
       {% elif result.ND.red_votes < result.ND.blue_votes %}
       fill="#1405bd"
       {% endif %}
       d="m 471,126.4 -0.4,-6.2 -1.8,-7.3 -1.8,-13.61 -0.5,-9.7 -1.9,-3.18 -1.6,-5.32 V 70.68 l 0.6,-3.85 -1.8,-5.54 -28.6,-0.59 -18.6,-0.6 -26.5,-1.3 -25.2,-2.16 -0.9,14.42 -4.7,50.94 56.8,3.9 56.9,1.7 z">
      <title
         id="title133" />
      <title
         id="title135">North Dakota</title>
    </path>
    <path
       class="tooltip-trigger"
       data-tooltip-text="{{result.NE.state_name}}: {{result.NE.total_ecv}}"
       data-tooltip-red="Trump: {{ result.NE.red_votes }}%"
       data-tooltip-blue="Biden: {{ result.NE.blue_votes }}%"
       {% if result.NE.red_votes > result.NE.blue_votes %}
       fill="#de0100"
       {% elif result.NE.red_votes < result.NE.blue_votes %}
       fill="#1405bd"
       {% endif %}
       d="m 470.3,204.3 -1,-2.3 -0.5,-1.6 -2.9,-1.6 -4.8,-1.5 -2.2,-1.2 -2.6,0.1 -3.7,0.4 -4.2,1.2 -6,-4.1 -2.2,-2 -10.7,0.6 -41.5,-2.4 -35.6,-2.2 -4.3,43.7 33.1,3.3 -1.4,21.1 21.7,1 40.6,1.2 43.8,0.6 h 4.5 l -2.2,-3 -2.6,-3.9 0.1,-2.3 -1.4,-2.7 -1.9,-5.2 -0.4,-6.7 -1.4,-4.1 -0.5,-5 -2.3,-3.7 -1,-4.7 -2.8,-7.9 -1,-5.3 z">
      <title
         id="title138" />
      <title
         id="title94">Nebraska</title>
    </path>
    <path
       class="tooltip-trigger"
       data-tooltip-text="{{result.NH.state_name}}: {{result.NH.total_ecv}}"
       data-tooltip-red="Trump: {{ result.NH.red_votes }}%"
       data-tooltip-blue="Biden: {{ result.NH.blue_votes }}%"
       {% if result.NH.red_votes > result.NH.blue_votes %}
       fill="#de0100"
       {% elif result.NH.red_votes < result.NH.blue_votes %}
       fill="#1405bd"
       {% endif %}
       d="m 881.7,141.3 1.1,-3.2 -2.7,-1.2 -0.5,-3.1 -4.1,-1.1 -0.3,-3 -11.7,-37.48 -0.7,0.08 -0.6,1.6 -0.6,-0.5 -1,-1 -1.5,1.9 -0.2,2.29 0.5,8.41 1.9,2.8 v 4.3 l -3.9,4.8 -2.4,0.9 v 0.7 l 1.1,1.9 v 8.6 l -0.8,9.2 -0.2,4.7 1,1.4 -0.2,4.7 -0.5,1.5 1,1.1 5.1,-1.2 13.8,-3.5 1.7,-2.9 4,-1.9 z">
      <title
         id="title142" />
      <title
         id="title97">New Hampshire</title>
    </path>
    <path
       class="tooltip-trigger"
       data-tooltip-text="{{result.NJ.state_name}}: {{result.NJ.total_ecv}}"
       data-tooltip-red="Trump: {{ result.NJ.red_votes }}%"
       data-tooltip-blue="Biden: {{ result.NJ.blue_votes }}%"
       {% if result.NJ.red_votes > result.NJ.blue_votes %}
       fill="#de0100"
       {% elif result.NJ.red_votes < result.NJ.blue_votes %}
       fill="#1405bd"
       {% endif %}
       d="m 823.7,228.3 0.1,-1.5 2.7,-1.3 1.7,-2.8 1.7,-2.4 3.3,-3.2 v -1.2 l -6.1,-4.1 -1,-2.7 -2.7,-0.3 -0.1,-0.9 -0.7,-2.2 2.2,-1.1 0.2,-2.9 -1.3,-1.3 0.2,-1.2 1.9,-3.1 V 193 l 2.5,-3.1 5.6,2.5 6.4,1.9 2.5,1.2 0.1,1.8 -0.5,2.7 0.4,4.5 -2.1,1.9 -1.1,1 0.5,0.5 2.7,-0.3 1.1,-0.8 1.6,3.4 0.2,9.4 0.6,1.1 -1.1,5.5 -3.1,6.5 -2.7,4 -0.8,4.8 -2.1,2.4 h -0.8 l -0.3,-2.7 0.8,-1 -0.2,-1.5 -4,-0.6 -4.8,-2.3 -3.2,-2.9 -1,-2 z">
      <title
         id="title146" />
      <title
         id="title100">New Jersey</title>
    </path>
    <path
       class="tooltip-trigger"
       data-tooltip-text="{{result.NM.state_name}}: {{result.NM.total_ecv}}"
       data-tooltip-red="Trump: {{ result.NM.red_votes }}%"
       data-tooltip-blue="Biden: {{ result.NM.blue_votes }}%"
       {% if result.NM.red_votes > result.NM.blue_votes %}
       fill="#de0100"
       {% elif result.NM.red_votes < result.NM.blue_votes %}
       fill="#1405bd"
       {% endif %}
       d="m 270.2,429.4 -16.7,-2.6 -1.2,9.6 -15.8,-2 6,-39.7 7,-53.2 4.4,-30.9 34,3.9 37.4,4.4 32,2.8 -0.3,10.8 -1.4,-0.1 -7.4,97.7 -28.4,-1.8 -38.1,-3.7 0.7,6.3 z">
      <title
         id="title150" />
      <title
         id="title103">New Mexico</title>
    </path>
    <path
       class="tooltip-trigger"
       data-tooltip-text="{{result.NV.state_name}}: {{result.NV.total_ecv}}"
       data-tooltip-red="Trump: {{ result.NV.red_votes }}%"
       data-tooltip-blue="Biden: {{ result.NV.blue_votes }}%"
       {% if result.NV.red_votes > result.NV.blue_votes %}
       fill="#de0100"
       {% elif result.NV.red_votes < result.NV.blue_votes %}
       fill="#1405bd"
       {% endif %}
       d="m 123.1,173.6 38.7,8.5 26,5.2 -10.6,53.1 -5.4,29.8 -3.3,15.5 -2.1,11.1 -2.6,16.4 -1.7,3.1 -1.6,-0.1 -1.2,-2.6 -2.8,-0.5 -1.3,-1.1 -1.8,0.1 -0.9,0.8 -1.8,1.3 -0.3,7.3 -0.3,1.5 -0.5,12.4 -1.1,1.8 -16.7,-25.5 -42.1,-62.1 -12.43,-19 8.55,-32.6 8.01,-31.3 z">
      <title
         id="title154" />
      <title
         id="title106">Nevada</title>
    </path>
    <path
       class="tooltip-trigger"
       data-tooltip-text="{{result.NY.state_name}}: {{result.NY.total_ecv}}"
       data-tooltip-red="Trump: {{ result.NY.red_votes }}%"
       data-tooltip-blue="Biden: {{ result.NY.blue_votes }}%"
       {% if result.NY.red_votes > result.NY.blue_votes %}
       fill="#de0100"
       {% elif result.NY.red_votes < result.NY.blue_votes %}
       fill="#1405bd"
       {% endif %}
       d="m 843.4,200 0.5,-2.7 -0.2,-2.4 -3,-1.5 -6.5,-2 -6,-2.6 -0.6,-0.4 -2.7,-0.3 -2,-1.5 -2.1,-5.9 -3.3,-0.5 -2.4,-2.4 -38.4,8.1 -31.6,6 -0.5,-6.5 1.6,-1.2 1.3,-1.1 1,-1.6 1.8,-1.1 1.9,-1.8 0.5,-1.6 2.1,-2.7 1.1,-1 -0.2,-1 -1.3,-3.1 -1.8,-0.2 -1.9,-6.1 2.9,-1.8 4.4,-1.5 4,-1.3 3.2,-0.5 6.3,-0.2 1.9,1.3 1.6,0.2 2.1,-1.3 2.6,-1.1 5.2,-0.5 2.1,-1.8 1.8,-3.2 1.6,-1.9 h 2.1 l 1.9,-1.1 0.2,-2.3 -1.5,-2.1 -0.3,-1.5 1.1,-2.1 v -1.5 h -1.8 l -1.8,-0.8 -0.8,-1.1 -0.2,-2.6 5.8,-5.5 0.6,-0.8 1.5,-2.9 2.9,-4.5 2.7,-3.7 2.1,-2.4 2.4,-1.8 3.1,-1.2 5.5,-1.3 3.2,0.2 4.5,-1.5 7.4,-2.2 0.7,4.9 2.4,6.5 0.8,5 -1,4.2 2.6,4.5 0.8,2 -0.9,3.2 3.7,1.7 2.7,10.2 v 5.8 l -0.6,10.9 0.8,5.4 0.7,3.6 1.5,7.3 v 8.1 l -1.1,2.3 2.1,2.7 0.5,0.9 -1.9,1.8 0.3,1.3 1.3,-0.3 1.5,-1.3 2.3,-2.6 1.1,-0.6 1.6,0.6 2.3,0.2 7.9,-3.9 2.9,-2.7 1.3,-1.5 4.2,1.6 -3.4,3.6 -3.9,2.9 -7.1,5.3 -2.6,1 -5.8,1.9 -4,1.1 -1,-0.4 z">
      <title
         id="title158" />
      <title
         id="title109">New York</title>
    </path>
    <path
       class="tooltip-trigger"
       data-tooltip-text="{{result.OH.state_name}}: {{result.OH.total_ecv}}"
       data-tooltip-red="Trump: {{ result.OH.red_votes }}%"
       data-tooltip-blue="Biden: {{ result.OH.blue_votes }}%"
       {% if result.OH.red_votes > result.OH.blue_votes %}
       fill="#de0100"
       {% elif result.OH.red_votes < result.OH.blue_votes %}
       fill="#1405bd"
       {% endif %}
       d="m 663.8,211.2 1.7,15.5 4.8,41.1 3.9,-0.2 2.3,-0.8 3.6,1.8 1.7,4.2 5.4,0.1 1.8,2 h 1.7 l 2.4,-1.4 3.1,0.5 1.5,1.3 1.8,-2 2.3,-1.4 2.4,-0.4 0.6,2.7 1.6,1 2.6,2 0.8,0.2 2,-0.1 1.2,-0.6 v -2.1 l 1.7,-1.5 0.1,-4.8 1.1,-4.2 1.9,-1.3 1,0.7 1,1.1 0.7,0.2 0.4,-0.4 -0.9,-2.7 v -2.2 l 1.1,-1.4 2.5,-3.6 1.3,-1.5 2.2,0.5 2.1,-1.5 3,-3.3 2.2,-3.7 0.2,-5.4 0.5,-5 V 230 l -1.2,-3.2 1.2,-1.8 1.3,-1.2 -0.6,-2.8 -4.3,-25.6 -6.2,3.7 -3.9,2.3 -3.4,3.7 -4,3.9 -3.2,0.8 -2.9,0.5 -5.5,2.6 -2.1,0.2 -3.4,-3.1 -5.2,0.6 -2.6,-1.5 -2.2,-1.3 z">
      <title
         id="title162" />
      <title
         id="title164">Ohio</title>
    </path>
    <path
       class="tooltip-trigger"
       data-tooltip-text="{{result.OK.state_name}}: {{result.OK.total_ecv}}"
       data-tooltip-red="Trump: {{ result.OK.red_votes }}%"
       data-tooltip-blue="Biden: {{ result.OK.blue_votes }}%"
       {% if result.OK.red_votes > result.OK.blue_votes %}
       fill="#de0100"
       {% elif result.OK.red_votes < result.OK.blue_votes %}
       fill="#1405bd"
       {% endif %}
       d="m 411.9,334.9 -1.8,24.3 -0.9,18 0.2,1.6 4,3.6 1.7,0.9 h 0.9 l 0.9,-2.1 1.5,1.9 1.6,0.1 0.3,-0.2 0.2,-1.1 2.8,1.4 -0.4,3.5 3.8,0.5 2.5,1 4.2,0.6 2.3,1.6 2.5,-1.7 3.5,0.7 2.2,3.1 1.2,0.1 v 2.3 l 2.1,0.7 2.5,-2.1 1.8,0.6 2.7,0.1 0.7,2.3 4.4,1.8 1.7,-0.3 1.9,-4.2 h 1.3 l 1.1,2.1 4.2,0.8 3.4,1.3 3,0.8 1.6,-0.7 0.7,-2.7 h 4.5 l 1.9,0.9 2.7,-1.9 h 1.4 l 0.6,1.4 h 3.6 l 2,-1.8 2.3,0.6 1.7,2.2 3,1.7 3.4,0.9 1.9,1.2 -0.3,-37.6 -1.4,-10.9 -0.1,-8.6 -1.5,-6.6 -0.6,-6.8 0.1,-4.3 -12.6,0.3 -46.3,-0.5 -44.7,-2.1 -41.5,-1.8 -0.4,10.7 z">
      <title
         id="title167" />
      <title
         id="title115">Oklahoma</title>
    </path>
    <path
       class="tooltip-trigger"
       data-tooltip-text="{{result.OR.state_name}}: {{result.OR.total_ecv}}"
       data-tooltip-red="Trump: {{ result.OR.red_votes }}%"
       data-tooltip-blue="Biden: {{ result.OR.blue_votes }}%"
       {% if result.OR.red_votes > result.OR.blue_votes %}
       fill="#de0100"
       {% elif result.OR.red_votes < result.OR.blue_votes %}
       fill="#1405bd"
       {% endif %}
       d="m 67.44,158.9 28.24,7.2 27.52,6.5 17,3.7 8.8,-35.1 1.2,-4.4 2.4,-5.5 -0.7,-1.3 -2.5,0.1 -1.3,-1.8 0.6,-1.5 0.4,-3.3 4.7,-5.7 1.9,-0.9 0.9,-0.8 0.7,-2.7 0.8,-1.1 3.9,-5.7 3.7,-4 0.2,-3.26 -3.4,-2.49 -1.2,-4.55 -13.1,-3.83 -15.3,-3.47 -14.8,0.37 -1.1,-1.31 -5.1,1.84 -4.5,-0.48 -2.4,-1.58 -1.3,0.54 -4.68,-0.29 -1.96,-1.43 -4.84,-1.77 -1.1,-0.07 -4.45,-1.27 -1.76,1.52 -6.26,-0.24 -5.31,-3.85 0.21,-9.28 -2.05,-3.5 -4.1,-0.6 -0.7,-2.5 -2.4,-0.5 -5.8,2.1 -2.3,6.5 -3.2,10 -3.2,6.5 -5,14.1 -6.5,13.6 -8.1,12.6 -1.9,2.9 -0.8,8.6 -1.3,6 2.71,3.5 z">
      <title
         id="title171" />
      <title
         id="title118">Oregon</title>
    </path>
    <path
       class="tooltip-trigger"
       data-tooltip-text="{{result.PA.state_name}}: {{result.PA.total_ecv}}"
       data-tooltip-red="Trump: {{ result.PA.red_votes }}%"
       data-tooltip-blue="Biden: {{ result.PA.blue_votes }}%"
       {% if result.PA.red_votes > result.PA.blue_votes %}
       fill="#de0100"
       {% elif result.PA.red_votes < result.PA.blue_votes %}
       fill="#1405bd"
       {% endif %}
       d="m 736.6,192.2 1.3,-0.5 5.7,-5.5 0.7,6.9 33.5,-6.5 36.9,-7.8 2.3,2.3 3.1,0.4 2,5.6 2.4,1.9 2.8,0.4 0.1,0.1 -2.6,3.2 v 3.1 l -1.9,3.1 -0.2,1.9 1.3,1.3 -0.2,1.9 -2.4,1.1 1,3.4 0.2,1.1 2.8,0.3 0.9,2.5 5.9,3.9 v 0.4 l -3.1,3 -1.5,2.2 -1.7,2.8 -2.7,1.2 -1.4,0.3 -2.1,1.3 -1.6,1.4 -22.4,4.3 -38.7,7.8 -11.3,1.4 -3.9,0.7 -5.1,-22.4 -4.3,-25.9 z">
      <title
         id="title175" />
      <title
         id="title121">Pennsylvania</title>
    </path>
    <path
       class="tooltip-trigger"
       data-tooltip-text="{{result.RI.state_name}}: {{result.RI.total_ecv}}"
       data-tooltip-red="Trump: {{ result.RI.red_votes }}%"
       data-tooltip-blue="Biden: {{ result.RI.blue_votes }}%"
       {% if result.RI.red_votes > result.RI.blue_votes %}
       fill="#de0100"
       {% elif result.RI.red_votes < result.RI.blue_votes %}
       fill="#1405bd"
       {% endif %}
       d="m 873.6,175.7 -0.8,-4.4 -1.6,-6 5.7,-1.5 1.5,1.3 3.4,4.3 2.8,4.4 -2.8,1.4 -1.3,-0.2 -1.1,1.8 -2.4,1.9 -2.8,1.1 z">
      <title
         id="title179" />
      <title
         id="title181">Rhode Island</title>
    </path>
    <path
       class="tooltip-trigger"
       data-tooltip-text="{{result.SC.state_name}}: {{result.SC.total_ecv}}"
       data-tooltip-red="Trump: {{ result.SC.red_votes }}%"
       data-tooltip-blue="Biden: {{ result.SC.blue_votes }}%"
       {% if result.SC.red_votes > result.SC.blue_votes %}
       fill="#de0100"
       {% elif result.SC.red_votes < result.SC.blue_votes %}
       fill="#1405bd"
       {% endif %}
       d="m 759,413.6 -2.1,-1 -1.9,-5.6 -2.5,-2.3 -2.5,-0.5 -1.5,-4.6 -3,-6.5 -4.2,-1.8 -1.9,-1.8 -1.2,-2.6 -2.4,-2 -2.3,-1.3 -2.2,-2.9 -3.2,-2.4 -4.4,-1.7 -0.4,-1.4 -2.3,-2.8 -0.5,-1.5 -3.8,-5.4 -3.4,0.1 -3.9,-2.5 -1.2,-1.2 -0.2,-1.4 0.6,-1.6 2.7,-1.3 -0.8,-2 6.4,-2.7 9.2,-4.5 7.1,-0.9 16.4,-0.5 2.3,1.9 1.8,3.5 4.6,-0.8 12.6,-1.5 2.7,0.8 12.5,7.4 10.1,8.3 -5.3,5.4 -2.6,6.1 -0.5,6.3 -1.6,0.8 -1.1,2.7 -2.4,0.6 -2.1,3.6 -2.7,2.7 -2.3,3.4 -1.6,0.8 -3.6,3.4 -2.9,0.2 1,3.2 -5,5.3 -2.3,1.6 z">
      <title
         id="title184" />
      <title
         id="title127">South Carolina</title>
    </path>
    <path
       class="tooltip-trigger"
       data-tooltip-text="{{result.SD.state_name}}: {{result.SD.total_ecv}}"
       data-tooltip-red="Trump: {{ result.SD.red_votes }}%"
       data-tooltip-blue="Biden: {{ result.SD.blue_votes }}%"
       {% if result.SD.red_votes > result.SD.blue_votes %}
       fill="#de0100"
       {% elif result.SD.red_votes < result.SD.blue_votes %}
       fill="#1405bd"
       {% endif %}
       d="m 471,181.1 -0.9,3.2 0.4,3 2.6,2 -1.2,5.4 -1.8,4.1 1.5,3.3 0.7,1.1 -1.3,0.1 -0.7,-1.6 -0.6,-2 -3.3,-1.8 -4.8,-1.5 -2.5,-1.3 -2.9,0.1 -3.9,0.4 -3.8,1.2 -5.3,-3.8 -2.7,-2.4 -10.9,0.8 -41.5,-2.4 -35.6,-2.2 1.5,-24.8 2.8,-34 0.4,-5 56.9,3.9 56.9,1.7 v 2.7 l -1.3,1.5 -2,1.5 -0.1,2.2 1.1,2.2 4.1,3.4 0.5,2.7 v 35.9 z">
      <title
         id="title188" />
      <title
         id="title190">South Dakota</title>
    </path>
    <path
       class="tooltip-trigger"
       data-tooltip-text="{{result.TN.state_name}}: {{result.TN.total_ecv}}"
       data-tooltip-red="Trump: {{ result.TN.red_votes }}%"
       data-tooltip-blue="Biden: {{ result.TN.blue_votes }}%"
       {% if result.TN.red_votes > result.TN.blue_votes %}
       fill="#de0100"
       {% elif result.TN.red_votes < result.TN.blue_votes %}
       fill="#1405bd"
       {% endif %}
       d="m 670.8,359.6 -13.1,1.2 -23.3,2.2 -37.6,2.7 -11.8,0.4 0.9,-0.6 0.9,-4.5 -1.2,-3.6 3.9,-2.3 0.4,-2.5 1.2,-4.3 3,-9.5 0.5,-5.6 0.3,-0.2 12.3,-0.2 13.6,-0.8 0.1,-3.9 3.5,-0.1 30.4,-3.3 54,-5.2 10.3,-1.5 7.6,-0.2 2.4,-1.9 1.3,0.3 -0.1,3.3 -0.4,1.6 -2.4,2.2 -1.6,3.6 -2,-0.4 -2.4,0.9 -2.2,3.3 -1.4,-0.2 -0.8,-1.2 -1.1,0.4 -4.3,4 -0.8,3.1 -4.2,2.2 -4.3,3.6 -3.8,1.5 -4.4,2.8 -0.6,3.6 -2.5,0.5 -2,1.7 -0.2,4.8 z">
      <title
         id="title193" />
      <title
         id="title195">Tennessee</title>
    </path>
    <path
       class="tooltip-trigger"
       data-tooltip-text="{{result.TX.state_name}}: {{result.TX.total_ecv}}"
       data-tooltip-red="Trump: {{ result.TX.red_votes }}%"
       data-tooltip-blue="Biden: {{ result.TX.blue_votes }}%"
       {% if result.TX.red_votes > result.TX.blue_votes %}
       fill="#de0100"
       {% elif result.TX.red_votes < result.TX.blue_votes %}
       fill="#1405bd"
       {% endif %}
       d="m 282.8,425.6 37,3.6 29.3,1.9 7.4,-97.7 54.4,2.4 -1.7,23.3 -1,18 0.2,2 4.4,4.1 2,1.1 h 1.8 l 0.5,-1.2 0.7,0.9 2.4,0.2 1.1,-0.6 v -0.2 l 1,0.5 -0.4,3.7 4.5,0.7 2.4,0.9 4.2,0.7 2.6,1.8 2.8,-1.9 2.7,0.6 2.2,3.1 0.8,0.1 v 2.1 l 3.3,1.1 2.5,-2.1 1.5,0.5 2.1,0.1 0.6,2.1 5.2,2 2.3,-0.5 1.9,-4 h 0.1 l 1.1,1.9 4.6,0.9 3.4,1.3 3.2,1 2.4,-1.2 0.7,-2.3 h 3.6 l 2.1,1 3,-2 h 0.4 l 0.5,1.4 h 4.7 l 1.9,-1.8 1.3,0.4 1.7,2.1 3.3,1.9 3.4,1 2.5,1.4 2.7,2 3.1,-1.2 2.1,0.8 0.7,20 0.7,9.5 0.6,4.1 2.6,4.4 0.9,4.5 4.2,5.9 0.3,3.1 0.6,0.8 -0.7,7.7 -2.9,4.8 1.3,2.6 -0.5,2.4 -0.8,7.2 -1.3,3 0.3,4.2 -5.6,1.6 -9.9,4.5 -1,1.9 -2.6,1.9 -2.1,1.5 -1.3,0.8 -5.7,5.3 -2.7,2.1 -5.3,3.2 -5.7,2.4 -6.3,3.4 -1.8,1.5 -5.8,3.6 -3.4,0.6 -3.9,5.5 -4,0.3 -1,1.9 2.3,1.9 -1.5,5.5 -1.3,4.5 -1.1,3.9 -0.8,4.5 0.8,2.4 1.8,7 1,6.1 1.8,2.7 -1,1.5 -3.1,1.9 -5.7,-3.9 -5.5,-1.1 -1.3,0.5 -3.2,-0.6 -4.2,-3.1 -5.2,-1.1 -7.6,-3.4 -2.1,-3.9 -1.3,-6.5 -3.2,-1.9 -0.6,-2.3 0.6,-0.6 0.3,-3.4 -1.3,-0.6 -0.6,-1 1.3,-4.4 -1.6,-2.3 -3.2,-1.3 -3.4,-4.4 -3.6,-6.6 -4.2,-2.6 0.2,-1.9 -5.3,-12.3 -0.8,-4.2 -1.8,-1.9 -0.2,-1.5 -6,-5.3 -2.6,-3.1 v -1.1 l -2.6,-2.1 -6.8,-1.1 -7.4,-0.6 -3.1,-2.3 -4.5,1.8 -3.6,1.5 -2.3,3.2 -1,3.7 -4.4,6.1 -2.4,2.4 -2.6,-1 -1.8,-1.1 -1.9,-0.6 -3.9,-2.3 v -0.6 l -1.8,-1.9 -5.2,-2.1 -7.4,-7.8 -2.3,-4.7 v -8.1 l -3.2,-6.5 -0.5,-2.7 -1.6,-1 -1.1,-2.1 -5,-2.1 -1.3,-1.6 -7.1,-7.9 -1.3,-3.2 -4.7,-2.3 -1.5,-4.4 -2.6,-2.9 -1.7,-0.5 z m 174.4,141.7 -0.6,-7.1 -2.7,-7.2 -0.6,-7 1.5,-8.2 3.3,-6.9 3.5,-5.4 3.2,-3.6 0.6,0.2 -4.8,6.6 -4.4,6.5 -2,6.6 -0.3,5.2 0.9,6.1 2.6,7.2 0.5,5.2 0.2,1.5 z">
      <title
         id="title198" />
      <title
         id="title136">Texas</title>
    </path>
    <path
       class="tooltip-trigger"
       data-tooltip-text="{{result.UT.state_name}}: {{result.UT.total_ecv}}"
       data-tooltip-red="Trump: {{ result.UT.red_votes }}%"
       data-tooltip-blue="Biden: {{ result.UT.blue_votes }}%"
       {% if result.UT.red_votes > result.UT.blue_votes %}
       fill="#de0100"
       {% elif result.UT.red_votes < result.UT.blue_votes %}
       fill="#1405bd"
       {% endif %}
       d="m 228.4,305.9 24.6,3.6 1.9,-13.7 7,-50.5 2.3,-22 -32.2,-3.5 2.2,-13.1 1.8,-10.6 -34.7,-6.1 -12.5,-2.5 -10.6,52.9 -5.4,30 -3.3,15.4 -1.7,9.2 z">
      <title
         id="title202" />
      <title
         id="title139">Utah</title>
    </path>
    <path
       class="tooltip-trigger"
       data-tooltip-text="{{result.VA.state_name}}: {{result.VA.total_ecv}}"
       data-tooltip-red="Trump: {{ result.VA.red_votes }}%"
       data-tooltip-blue="Biden: {{ result.VA.blue_votes }}%"
       {% if result.VA.red_votes > result.VA.blue_votes %}
       fill="#de0100"
       {% elif result.VA.red_votes < result.VA.blue_votes %}
       fill="#1405bd"
       {% endif %}
       d="m 834.7,265.2 -0.2,2.8 -2.9,3.8 -0.4,4.6 0.5,3.4 -1.8,5 -2.2,1.9 -1.5,-4.6 0.4,-5.4 1.6,-4.2 0.7,-3.3 -0.1,-1.7 z m -60.3,44.6 -38.6,5.6 -4.8,-0.1 -2.2,-0.3 -2.5,1.9 -7.3,0.1 -10.3,1.6 -6.7,0.6 4.1,-2.6 4.1,-2.3 v -2.1 l 5.7,-7.3 4.1,-3.7 2.2,-2.5 3.6,4.3 3.8,0.9 2.7,-1 2,-1.5 2.4,1.2 4.6,-1.3 1.7,-4.4 2.4,0.7 3.2,-2.3 1.6,0.4 2.8,-3.2 0.2,-2.7 -0.8,-1.2 4.8,-10.5 1.8,-5.2 0.5,-4.7 0.7,-0.2 1.1,1.7 1.5,1.2 3.9,-0.2 1.7,-8.1 3,-0.6 0.8,-2.6 2.8,-2.2 1.1,-2.1 1.8,-4.3 0.1,-4.6 3.6,1.4 6.6,3.1 0.3,-5.2 3.4,1.2 -0.6,2.9 8.6,3.1 1.4,1.8 -0.8,3.3 -1.3,1.3 -0.5,1.7 0.5,2.4 2,1.3 3.9,1.4 2.9,1 4.9,0.9 2.2,2.1 3.2,0.4 0.9,1.2 -0.4,4.7 1.4,1.1 -0.5,1.9 1.2,0.8 -0.2,1.4 -2.7,-0.1 0.1,1.6 2.3,1.5 0.1,1.4 1.8,1.8 0.5,2.5 -2.6,1.4 1.6,1.5 5.8,-1.7 3.7,6.2 z">
      <title
         id="title206" />
      <title
         id="title208">Virginia</title>
    </path>
    <path
       class="tooltip-trigger"
       data-tooltip-text="{{result.VT.state_name}}: {{result.VT.total_ecv}}"
       data-tooltip-red="Trump: {{ result.VT.red_votes }}%"
       data-tooltip-blue="Biden: {{ result.VT.blue_votes }}%"
       {% if result.VT.red_votes > result.VT.blue_votes %}
       fill="#de0100"
       {% elif result.VT.red_votes < result.VT.blue_votes %}
       fill="#1405bd"
       {% endif %}
       d="m 832.7,111.3 2.4,6.5 0.8,5.3 -1,3.9 2.5,4.4 0.9,2.3 -0.7,2.6 3.3,1.5 2.9,10.8 v 5.3 l 11.5,-2.1 -1,-1.1 0.6,-1.9 0.2,-4.3 -1,-1.4 0.2,-4.7 0.8,-9.3 v -8.5 l -1.1,-1.8 v -1.6 l 2.8,-1.1 3.5,-4.4 v -3.6 l -1.9,-2.7 -0.3,-5.79 -26.1,6.79 z">
      <title
         id="title211" />
      <title
         id="title145">Vermont</title>
    </path>
    <path
       class="tooltip-trigger"
       data-tooltip-text="{{result.WA.state_name}}: {{result.WA.total_ecv}}"
       data-tooltip-red="Trump: {{ result.WA.red_votes }}%"
       data-tooltip-blue="Biden: {{ result.WA.blue_votes }}%"
       {% if result.WA.red_votes > result.WA.blue_votes %}
       fill="#de0100"
       {% elif result.WA.red_votes < result.WA.blue_votes %}
       fill="#1405bd"
       {% endif %}
       d="m 74.5,67.7 -2.3,-4.3 -4.1,-0.7 -0.4,-2.4 -2.5,-0.6 -2.9,-0.5 -1.8,1 -2.3,-2.9 0.3,-2.9 2.7,-0.3 1.6,-4 L 60.2,49 60.4,45.3 64.8,44.7 62.1,42 60.6,34.9 61.2,32 v -7.9 l -1.8,-3.2 2.3,-9.4 2.1,0.5 2.4,2.9 2.7,2.6 3.2,1.9 4.5,2.1 3.1,0.6 2.9,1.5 3.4,1 2.3,-0.2 V 22 l 1.3,-1.1 2.1,-1.3 0.3,1.1 0.3,1.8 -2.3,0.5 -0.3,2.1 1.8,1.5 1.1,2.4 0.6,1.9 1.5,-0.2 0.2,-1.3 -1,-1.3 -0.5,-3.2 0.8,-1.8 -0.6,-1.5 V 19 L 95.4,15.4 94.3,12.8 91.9,8 92.2,7.2 93.6,6.4 98,7.9 l 9.7,2.7 8.6,1.9 20,5.7 23,5.7 15,3.49 -4.8,17.56 -4.5,20.83 -3.4,16.25 -0.4,9.18 -12.9,-3.72 -15.3,-3.47 -14.5,0.32 -1.1,-1.53 -5.7,2.09 -3.9,-0.42 -2.6,-1.79 -1.7,0.65 -4.15,-0.25 -1.72,-1.32 -5.16,-1.82 -1.18,-0.16 -4.8,-1.39 -1.92,1.65 -5.65,-0.25 -4.61,-3.35 z m 9.6,-55.4 2,-0.2 0.5,1.4 1.5,-1.6 h 2.3 l 0.8,1.5 -1.5,1.7 0.6,0.8 -0.7,2 -1.4,0.4 c 0,0 -0.9,0.1 -0.9,-0.2 0,-0.3 1.5,-2.6 1.5,-2.6 l -1.7,-0.6 -0.3,1.5 -0.7,0.6 -1.5,-2.3 z">
      <title
         id="title215" />
      <title
         id="title148">Washington</title>
    </path>
    <path
       class="tooltip-trigger"
       data-tooltip-text="{{result.WI.state_name}}: {{result.WI.total_ecv}}"
       data-tooltip-red="Trump: {{ result.WI.red_votes }}%"
       data-tooltip-blue="Biden: {{ result.WI.blue_votes }}%"
       {% if result.WI.red_votes > result.WI.blue_votes %}
       fill="#de0100"
       {% elif result.WI.red_votes < result.WI.blue_votes %}
       fill="#1405bd"
       {% endif %}
       d="m 541.4,109.9 2.9,0.5 2.9,-0.6 7.4,-3.2 2.9,-1.9 2.1,-0.8 1.9,1.5 -1.1,1.1 -1.9,3.1 -0.6,1.9 1,0.6 1.8,-1 1.1,-0.2 2.7,0.8 0.6,1.1 1.1,0.2 0.6,-1.1 4,5.3 8.2,1.2 8.2,2.2 2.6,1.1 12.3,2.6 1.6,2.3 3.6,1.2 1.7,10.2 1.6,1.4 1.5,0.9 -1.1,2.3 -1.8,1.6 -2.1,4.7 -1.3,2.4 0.2,1.8 1.5,0.3 1.1,-1.9 1.5,-0.8 0.8,-2.3 1.9,-1.8 2.7,-4 4.2,-6.3 0.8,-0.5 0.3,1 -0.2,2.3 -2.9,6.8 -2.7,5.7 -0.5,3.2 -0.6,2.6 0.8,1.3 -0.2,2.7 -1.9,2.4 -0.5,1.8 0.6,3.6 0.6,3.4 -1.5,2.6 -0.8,2.9 -1,3.1 1.1,2.4 0.6,6.1 1.6,4.5 -0.2,3 -15.9,1.8 -17.5,1 H 567 l -0.7,-1.5 -2.9,-0.4 -2.6,-1.3 -2.3,-3.7 -0.3,-3.6 2,-2.9 -0.5,-1.4 -2.1,-2.2 -0.8,-3.3 -0.6,-6.8 -2.1,-2.5 -7,-4.5 -3.8,-5.4 -3.4,-1 -2.2,-2.8 h -3.2 l -2.9,-3.3 -0.5,-6.5 0.1,-3.8 1.5,-3.1 -0.8,-3.2 -2.5,-2.8 1.8,-5.4 5.2,-3.8 1.6,-1.9 -0.2,-8.1 0.2,-2.8 2.4,-2.8 z">
      <title
         id="title219" />
      <title
         id="title151">Wisconsin</title>
    </path>
    <path
       class="tooltip-trigger"
       data-tooltip-text="{{result.WV.state_name}}: {{result.WV.total_ecv}}"
       data-tooltip-red="Trump: {{ result.WV.red_votes }}%"
       data-tooltip-blue="Biden: {{ result.WV.blue_votes }}%"
       {% if result.WV.red_votes > result.WV.blue_votes %}
       fill="#de0100"
       {% elif result.WV.red_votes < result.WV.blue_votes %}
       fill="#1405bd"
       {% endif %}
       d="m 758.9,254.3 5.8,-6 2.6,-0.8 1.6,-1.5 1.5,-2.2 1.1,0.3 3.1,-0.2 4.6,-3.6 1.5,-0.5 1.3,1 2.6,1.2 3,3 -0.4,4.3 -5.4,-2.6 -4.8,-1.8 -0.1,5.9 -2.6,5.7 -2.9,2.4 -0.8,2.3 -3,0.5 -1.7,8.1 -2.8,0.2 -1.1,-1 -1.2,-2 -2.2,0.5 -0.5,5.1 -1.8,5.1 -5,11 0.9,1.4 -0.1,2 -2.2,2.5 -1.6,-0.4 -3.1,2.3 -2.8,-0.8 -1.8,4.9 -3.8,1 -2.5,-1.3 -2.5,1.9 -2.3,0.7 -3.2,-0.8 -3.8,-4.5 -3.5,-2.2 -2.5,-2.5 -2.9,-3.7 -0.5,-2.3 -2.8,-1.7 -0.6,-1.3 -0.2,-5.6 0.3,0.1 2.4,-0.2 1.8,-1 V 275 l 1.7,-1.5 0.1,-5.2 0.9,-3.6 1.1,-0.7 0.4,0.3 1,1.1 1.7,0.5 1.1,-1.3 -1,-3.1 v -1.6 l 3.1,-4.6 1.2,-1.3 2,0.5 2.6,-1.8 3.1,-3.4 2.4,-4.1 0.2,-5.6 0.5,-4.8 v -4.9 l -1.1,-3 0.9,-1.3 0.8,-0.7 4.3,19.3 4.3,-0.8 11.2,-1.3 z">
      <title
         id="title223" />
      <title
         id="title225">West Virginia</title>
    </path>
    <path
       class="tooltip-trigger"
       data-tooltip-text="{{result.WY.state_name}}: {{result.WY.total_ecv}}"
       data-tooltip-red="Trump: {{ result.WY.red_votes }}%"
       data-tooltip-blue="Biden: {{ result.WY.blue_votes }}%"
       {% if result.WY.red_votes > result.WY.blue_votes %}
       fill="#de0100"
       {% elif result.WY.red_votes < result.WY.blue_votes %}
       fill="#1405bd"
       {% endif %}
       d="m 353,161.9 -1.5,25.4 -4.4,44 -2.7,-0.3 -83.3,-9.1 -27.9,-3 2,-12 6.9,-41 3.8,-24.2 1.3,-11.2 48.2,7 59.1,6.5 z">
      <title
         id="title228" />
      <title
         id="title157">Wyoming</title>
    </path>
    <g
       id="DC">
      <title
         id="title232" />
      <title
         id="title160">District of Columbia</title>
      <path
         class="tooltip-trigger"
         data-tooltip-text="{{result.DC.state_name}}: {{result.DC.total_ecv}}"
         data-tooltip-red="Trump: {{ result.DC.red_votes }}%"
         data-tooltip-blue="Biden: {{ result.DC.blue_votes }}%"
         {% if result.DC.red_votes > result.DC.blue_votes %}
         fill="#de0100"
         {% elif result.DC.red_votes < result.DC.blue_votes %}
         fill="#1405bd"
         {% endif %}1"
         d="m 801.8,253.8 -1.1,-1.6 -1,-0.8 1.1,-1.6 2.2,1.5 z" />
      <circle
         class="tooltip-trigger"
         data-tooltip-text="{{result.DC.state_name}}: {{result.DC.total_ecv}}"
         data-tooltip-red="Trump: {{ result.DC.red_votes }}%"
         data-tooltip-blue="Biden: {{ result.DC.blue_votes }}%"
         {% if result.DC.red_votes > result.DC.blue_votes %}
         fill="#de0100"
         {% elif result.DC.red_votes < result.DC.blue_votes %}
         fill="#1405bd"
         {% endif %}2"
         stroke="#ffffff"
         stroke-width="1.5"
         cx="801.29999"
         cy="251.8"
         r="5"
         opacity="1" />
      <!-- Set opacity to "0" to hide DC circle -->
    </g>
  </g>
  <path
     id="frames"
     fill="none"
     stroke="#a9a9a9"
     stroke-width="2"
     d="m 265,652.53792 v 55 l 36,45 m -251,-168 h 147 l 68,68 h 85 l 54,54 v 46" />
  <g
     id="g1479"
     transform="translate(53.774551,26)">
    <text
       xml:space="preserve"
       style="font-style:normal;font-weight:normal;font-size:36.0081px;line-height:1.25;font-family:sans-serif;letter-spacing:0px;word-spacing:0px;fill:#000000;fill-opacity:1;stroke:none;stroke-width:0.900203"
       x="257.04422"
       y="40.52919"
       id="text178"><tspan
         id="tspan176"
         x="257.04422"
         y="40.52919"
         style="font-style:normal;font-variant:normal;font-weight:normal;font-stretch:normal;font-family:Oswald;-inkscape-font-specification:Oswald;stroke-width:0.900203">US Presidential Elections 2020</tspan></text>
    <rect
       style="fill:#666;fill-opacity:0.901961;fill-rule:evenodd;stroke:#b3b3b3;stroke-width:0.900203;stroke-opacity:0.338393"
       id="bg_bar"
       width="538"
       height="36.31945"
       x="190.80769"
       y="52.339817" />
    <rect
       style="fill:#1405bd;fill-opacity:0.901961;fill-rule:evenodd;stroke:#b3b3b3;stroke-width:0.900203;stroke-opacity:0.338393"
       id="biden_bar"
       width="{{total_blue}}"
       height="36.31945"
       x="{{728.80769-(total_blue|float)}}"
       y="52.339817" />
    <rect
       style="fill:#111;fill-opacity:0.901961;fill-rule:evenodd;stroke:#b3b3b3;stroke-width:0.900203;stroke-opacity:0.338393"
       id="midpoint"
       width="1.80769"
       height="37"
       x="459"
       y="51.999542" />
    <rect
       style="fill:#de0100;fill-opacity:0.901961;fill-rule:evenodd;stroke:#b3b3b3;stroke-width:0.900203;stroke-opacity:0.338393"
       id="trump_bar"
       width="{{total_red}}"
       height="36.31945"
       x="190.80769"
       y="52.339817" />
    <text
       xml:space="preserve"
       style="font-style:normal;font-weight:normal;font-size:36.0081px;line-height:1.25;font-family:sans-serif;letter-spacing:0px;word-spacing:0px;fill:#ffffff;fill-opacity:1;stroke:none;stroke-width:0.900203"
       x="200.80769"
       y="83.606987"
       id="trump_text"><tspan
         id="tspan180"
         x="200.80769"
         y="83.606987"
         style="font-style:normal;font-variant:normal;font-weight:normal;font-stretch:normal;font-family:'Noto Serif';-inkscape-font-specification:'Noto Serif';fill:#fff;stroke-width:0.900203">{{total_red}}</tspan></text>
    <text
       xml:space="preserve"
       style="font-style:normal;font-weight:normal;font-size:36.0081px;line-height:1.25;font-family:sans-serif;letter-spacing:0px;word-spacing:0px;fill:#0ffffff;fill-opacity:1;stroke:none;stroke-width:0.900203"
       x="658.57275"
       y="83.606987"
       id="biden_text"><tspan
         id="tspan184"
         x="658.57275"
         y="83.606987"
         style="font-style:normal;font-variant:normal;font-weight:normal;font-stretch:normal;font-family:'Noto Serif';-inkscape-font-specification:'Noto Serif';fill:#fff;stroke-width:0.900203">{{total_blue}}</tspan></text>
    <text
       xml:space="preserve"
       style="font-style:normal;font-weight:normal;font-size:27.866px;line-height:1.25;font-family:sans-serif;letter-spacing:0px;word-spacing:0px;fill:#000000;fill-opacity:1;stroke:none;stroke-width:0.696648"
       x="189.93961"
       y="115.19833"
       id="text204"><tspan
         id="tspan202"
         x="189.93961"
         y="115.19833"
         style="font-style:normal;font-variant:normal;font-weight:normal;font-stretch:normal;font-family:Oswald;-inkscape-font-specification:Oswald;stroke-width:0.696648">Trump</tspan></text>
    <text
       xml:space="preserve"
       style="font-style:normal;font-weight:normal;font-size:27.866px;line-height:1.25;font-family:sans-serif;letter-spacing:0px;word-spacing:0px;fill:#000000;fill-opacity:1;stroke:none;stroke-width:0.696648"
       x="673.22211"
       y="115.19833"
       id="text208"><tspan
         id="tspan206"
         x="673.22211"
         y="115.19833"
         style="font-style:normal;font-variant:normal;font-weight:normal;font-stretch:normal;font-family:Oswald;-inkscape-font-specification:Oswald;stroke-width:0.696648">Biden</tspan></text>
  </g>
  <g
     id="tooltip"
     visibility="hidden"
     transform="translate(54.056811,50)">
    <rect
       x="2"
       y="2"
       width="80"
       height="24"
       fill="#ffffff"
       opacity="0.4"
       rx="2"
       ry="2"
       id="rect181" />
    <rect
       width="120"
       height="80"
       fill="#ffffffcc"
       rx="2"
       ry="2"
       id="rect183"
       x="0"
       y="0" />
    <text
       class="statename"
       fill="black"
       x="8"
       dy="1.2em"
       id="text185">.</text>
    <text
       fill="black"
       x="8"
       y="20"
       id="text191"><tspan
         class="redline"
         fill="#e63946"
         x="8"
         dy="1.3em"
         id="tspan187">.</tspan><tspan
         class="blueline"
         fill="#023e8a"
         x="8"
         dy="1.25em"
         id="tspan189">.</tspan></text>
  </g>
  <script
     type="text/javascript"
     id="script194"><![CDATA[



      (function() {
        var svg = document.getElementById('map');
        var tooltip = svg.getElementById('tooltip');
        var tooltipText = tooltip.getElementsByTagName('text')[0];
        var statenameText = svg.getElementsByClassName('statename')[0];
        var redText = svg.getElementsByClassName('redline')[0];
        var blueText = svg.getElementsByClassName('blueline')[0];
        var tooltipRects = tooltip.getElementsByTagName('rect');
        var triggers = svg.getElementsByClassName('tooltip-trigger');

        for (var i = 0; i < triggers.length; i++) {
          triggers[i].addEventListener('mousemove', showTooltip);
          triggers[i].addEventListener('mouseout', hideTooltip);
        }

        function showTooltip(evt) {
          var CTM = svg.getScreenCTM();
          var x = (evt.clientX - CTM.e + 6) / CTM.a;
          var y = (evt.clientY - CTM.f + 20) / CTM.d;
          tooltip.setAttributeNS(null, "transform", "translate(" + x + " " + y + ")");
          tooltip.setAttributeNS(null, "visibility", "visible");

          tooltipText.firstChild.data = evt.target.getAttributeNS(null, "data-tooltip-text");
          redText.firstChild.data = evt.target.getAttributeNS(null, "data-tooltip-red");
          blueText.firstChild.data = evt.target.getAttributeNS(null, "data-tooltip-blue");
          statenameText.firstChild.data = evt.target.getAttributeNS(null, "data-tooltip-text");


          var length = statenameText.getComputedTextLength();
          var length2 = redText.getComputedTextLength();

          console.log(length);
          for (var i = 0; i < tooltipRects.length; i++) {
            tooltipRects[i].setAttributeNS(null, "width", length + length2);
          }
        }

        function hideTooltip(evt) {
          tooltip.setAttributeNS(null, "visibility", "hidden");
        }

        function makeid(length) {
           var result           = '';
           var characters       = 'ABCDEFGHIJKLMNOPQRSTUVWXYZabcdefghijklmnopqrstuvwxyz0123456789';
           var charactersLength = characters.length;
           for ( var i = 0; i < length; i++ ) {
              result += characters.charAt(Math.floor(Math.random() * charactersLength));
           }
           return result;
        }




      })()
      
    

    ]]></script>
</svg>
